<svg width="176" height="57" viewBox="0 0 176 57" fill="none" xmlns="http://www.w3.org/2000/svg">
<path d="M15.8032 30.6475C15.8032 32.3877 15.1748 33.7588 13.918 34.7607C12.6699 35.7627 10.9297 36.2637 8.69727 36.2637C6.64062 36.2637 4.82129 35.877 3.23926 35.1035V31.3066C4.54004 31.8867 5.63867 32.2954 6.53516 32.5327C7.44043 32.77 8.2666 32.8887 9.01367 32.8887C9.91016 32.8887 10.5957 32.7173 11.0703 32.3745C11.5537 32.0317 11.7954 31.522 11.7954 30.8452C11.7954 30.4673 11.6899 30.1333 11.479 29.8433C11.2681 29.5444 10.9561 29.2588 10.543 28.9863C10.1387 28.7139 9.30811 28.2788 8.05127 27.6812C6.87354 27.1274 5.99023 26.5957 5.40137 26.0859C4.8125 25.5762 4.34229 24.9829 3.99072 24.3062C3.63916 23.6294 3.46338 22.8384 3.46338 21.9331C3.46338 20.228 4.03906 18.8877 5.19043 17.9121C6.35059 16.9365 7.9502 16.4487 9.98926 16.4487C10.9912 16.4487 11.9448 16.5674 12.8501 16.8047C13.7642 17.042 14.7178 17.376 15.7109 17.8066L14.3926 20.9839C13.3643 20.562 12.5117 20.2676 11.835 20.1006C11.167 19.9336 10.5078 19.8501 9.85742 19.8501C9.08398 19.8501 8.49072 20.0303 8.07764 20.3906C7.66455 20.751 7.45801 21.2212 7.45801 21.8013C7.45801 22.1616 7.5415 22.478 7.7085 22.7505C7.87549 23.0142 8.13916 23.2734 8.49951 23.5283C8.86865 23.7744 9.73438 24.2227 11.0967 24.873C12.8984 25.7344 14.1333 26.6001 14.8013 27.4702C15.4692 28.3315 15.8032 29.3906 15.8032 30.6475ZM28.6108 36L27.833 33.9961H27.7275C27.0508 34.8486 26.352 35.4419 25.6313 35.7759C24.9194 36.1011 23.9878 36.2637 22.8364 36.2637C21.4214 36.2637 20.3052 35.8594 19.4878 35.0508C18.6792 34.2422 18.2749 33.0908 18.2749 31.5967C18.2749 30.0322 18.8198 28.8809 19.9096 28.1426C21.0083 27.3955 22.6606 26.9824 24.8667 26.9033L27.4243 26.8242V26.1782C27.4243 24.6841 26.6596 23.937 25.1304 23.937C23.9526 23.937 22.5683 24.293 20.9775 25.0049L19.646 22.2891C21.3423 21.4014 23.2231 20.9575 25.2886 20.9575C27.2661 20.9575 28.7822 21.3882 29.8369 22.2495C30.8916 23.1108 31.4189 24.4204 31.4189 26.1782V36H28.6108ZM27.4243 29.1709L25.8686 29.2236C24.6997 29.2588 23.8296 29.4697 23.2583 29.8564C22.687 30.2432 22.4013 30.832 22.4013 31.623C22.4013 32.7568 23.0517 33.3237 24.3525 33.3237C25.2842 33.3237 26.0268 33.0557 26.5805 32.5195C27.143 31.9834 27.4243 31.2715 27.4243 30.3838V29.1709ZM39.3486 36L33.7324 21.2607H37.938L40.7856 29.6587C41.102 30.7222 41.2998 31.7285 41.3789 32.6777H41.458C41.5019 31.834 41.6997 30.8276 42.0512 29.6587L44.8857 21.2607H49.0913L43.4751 36H39.3486ZM51.3124 17.4507C51.3124 16.1411 52.0419 15.4863 53.5009 15.4863C54.9599 15.4863 55.6894 16.1411 55.6894 17.4507C55.6894 18.0747 55.5048 18.5625 55.1357 18.9141C54.7753 19.2568 54.2304 19.4282 53.5009 19.4282C52.0419 19.4282 51.3124 18.769 51.3124 17.4507ZM55.5048 36H51.4838V21.2607H55.5048V36ZM73.6122 36H69.5912V27.3911C69.5912 26.3276 69.4023 25.5322 69.0243 25.0049C68.6464 24.4688 68.0444 24.2007 67.2182 24.2007C66.0932 24.2007 65.2802 24.5786 64.7792 25.3345C64.2782 26.0815 64.0278 27.3252 64.0278 29.0654V36H60.0068V21.2607H63.0785L63.6191 23.146H63.8432C64.2914 22.4341 64.9067 21.8979 65.6889 21.5376C66.4799 21.1685 67.3764 20.9839 68.3783 20.9839C70.0922 20.9839 71.393 21.4497 72.2807 22.3813C73.1684 23.3042 73.6122 24.6401 73.6122 26.3892V36ZM90.8495 21.2607V23.3042L88.5424 23.8975C88.9643 24.5566 89.1752 25.2949 89.1752 26.1123C89.1752 27.6943 88.6215 28.9292 87.5141 29.8169C86.4154 30.6958 84.8861 31.1353 82.9262 31.1353L82.2011 31.0957L81.6078 31.0298C81.1947 31.3462 80.9882 31.6978 80.9882 32.0845C80.9882 32.6646 81.7265 32.9546 83.203 32.9546H85.7079C87.3251 32.9546 88.5556 33.3018 89.3993 33.9961C90.2519 34.6904 90.6781 35.71 90.6781 37.0547C90.6781 38.7773 89.9574 40.1133 88.516 41.0625C87.0834 42.0117 85.0224 42.4863 82.3329 42.4863C80.2763 42.4863 78.703 42.126 77.6132 41.4053C76.5321 40.6934 75.9916 39.6914 75.9916 38.3994C75.9916 37.5117 76.2685 36.769 76.8222 36.1714C77.3759 35.5737 78.1889 35.1475 79.2611 34.8926C78.848 34.7168 78.4877 34.4312 78.1801 34.0356C77.8725 33.6313 77.7187 33.2051 77.7187 32.7568C77.7187 32.1943 77.8812 31.7285 78.2064 31.3594C78.5316 30.9814 79.0019 30.6123 79.6171 30.252C78.8437 29.918 78.2284 29.3818 77.7714 28.6436C77.3231 27.9053 77.099 27.0352 77.099 26.0332C77.099 24.4248 77.622 23.1812 78.6679 22.3022C79.7138 21.4233 81.2079 20.9839 83.1503 20.9839C83.5634 20.9839 84.0512 21.0234 84.6137 21.1025C85.185 21.1729 85.5497 21.2256 85.7079 21.2607H90.8495ZM79.4721 38.083C79.4721 38.6367 79.7357 39.0718 80.2631 39.3882C80.7992 39.7046 81.5463 39.8628 82.5043 39.8628C83.9457 39.8628 85.0751 39.665 85.8925 39.2695C86.7099 38.874 87.1186 38.3335 87.1186 37.6479C87.1186 37.0942 86.8769 36.7119 86.3935 36.501C85.9101 36.29 85.163 36.1846 84.1522 36.1846H82.0692C81.331 36.1846 80.7113 36.356 80.2104 36.6987C79.7182 37.0503 79.4721 37.5117 79.4721 38.083ZM80.9354 26.0859C80.9354 26.8857 81.1156 27.5186 81.476 27.9844C81.8451 28.4502 82.4032 28.6831 83.1503 28.6831C83.9062 28.6831 84.4599 28.4502 84.8114 27.9844C85.163 27.5186 85.3388 26.8857 85.3388 26.0859C85.3388 24.3105 84.6093 23.4229 83.1503 23.4229C81.6737 23.4229 80.9354 24.3105 80.9354 26.0859ZM103.842 31.623C103.842 33.1348 103.314 34.2861 102.26 35.0771C101.214 35.8682 99.6449 36.2637 97.5531 36.2637C96.4808 36.2637 95.5668 36.189 94.8109 36.0396C94.0551 35.8989 93.3475 35.688 92.6884 35.4067V32.0845C93.4354 32.436 94.2748 32.7305 95.2064 32.9678C96.1469 33.2051 96.973 33.3237 97.6849 33.3237C99.1439 33.3237 99.8734 32.9019 99.8734 32.0581C99.8734 31.7417 99.7767 31.4868 99.5834 31.2935C99.39 31.0913 99.056 30.8672 98.5814 30.6211C98.1068 30.3662 97.474 30.0718 96.683 29.7378C95.5492 29.2632 94.7142 28.8237 94.1781 28.4194C93.6508 28.0151 93.264 27.5537 93.018 27.0352C92.7806 26.5078 92.662 25.8618 92.662 25.0972C92.662 23.7876 93.1674 22.7769 94.1781 22.0649C95.1976 21.3442 96.639 20.9839 98.5023 20.9839C100.278 20.9839 102.005 21.3706 103.683 22.144L102.471 25.0444C101.732 24.728 101.042 24.4688 100.401 24.2666C99.7592 24.0645 99.1044 23.9634 98.4364 23.9634C97.2499 23.9634 96.6566 24.2842 96.6566 24.9258C96.6566 25.2861 96.8456 25.5981 97.2235 25.8618C97.6102 26.1255 98.4496 26.5166 99.7416 27.0352C100.893 27.501 101.737 27.936 102.273 28.3403C102.809 28.7446 103.204 29.2104 103.459 29.7378C103.714 30.2651 103.842 30.8936 103.842 31.623ZM125.06 26.3364C125.06 29.5269 124.269 31.979 122.687 33.6929C121.105 35.4067 118.838 36.2637 115.885 36.2637C112.932 36.2637 110.664 35.4067 109.082 33.6929C107.5 31.979 106.709 29.5181 106.709 26.3101C106.709 23.1021 107.5 20.6543 109.082 18.9668C110.673 17.2705 112.949 16.4224 115.911 16.4224C118.873 16.4224 121.136 17.2749 122.701 18.98C124.274 20.6851 125.06 23.1372 125.06 26.3364ZM110.994 26.3364C110.994 28.4897 111.402 30.1113 112.22 31.2012C113.037 32.291 114.259 32.8359 115.885 32.8359C119.145 32.8359 120.776 30.6694 120.776 26.3364C120.776 21.9946 119.154 19.8237 115.911 19.8237C114.285 19.8237 113.059 20.373 112.233 21.4717C111.407 22.5615 110.994 24.1831 110.994 26.3364ZM138.369 36L137.591 33.9961H137.486C136.809 34.8486 136.11 35.4419 135.389 35.7759C134.678 36.1011 133.746 36.2637 132.595 36.2637C131.18 36.2637 130.063 35.8594 129.246 35.0508C128.437 34.2422 128.033 33.0908 128.033 31.5967C128.033 30.0322 128.578 28.8809 129.668 28.1426C130.766 27.3955 132.419 26.9824 134.625 26.9033L137.182 26.8242V26.1782C137.182 24.6841 136.418 23.937 134.889 23.937C133.711 23.937 132.327 24.293 130.736 25.0049L129.404 22.2891C131.1 21.4014 132.981 20.9575 135.047 20.9575C137.024 20.9575 138.54 21.3882 139.595 22.2495C140.65 23.1108 141.177 24.4204 141.177 26.1782V36H138.369ZM137.182 29.1709L135.627 29.2236C134.458 29.2588 133.588 29.4697 133.016 29.8564C132.445 30.2432 132.16 30.832 132.16 31.623C132.16 32.7568 132.81 33.3237 134.111 33.3237C135.042 33.3237 135.785 33.0557 136.339 32.5195C136.901 31.9834 137.182 31.2715 137.182 30.3838V29.1709ZM149.463 27.9844L151.216 25.7432L155.343 21.2607H159.878L154.024 27.6548L160.234 36H155.593L151.348 30.0278L149.621 31.4121V36H145.6V15.4863H149.621V24.6357L149.41 27.9844H149.463Z" fill="#141414"/>
</svg>
