<svg width="176" height="57" viewBox="0 0 176 57" fill="none" xmlns="http://www.w3.org/2000/svg">
<path d="M16.6865 30.1465C16.6865 31.3418 16.3833 32.4053 15.7769 33.3369C15.1704 34.2598 14.2959 34.9805 13.1533 35.499C12.0107 36.0088 10.6704 36.2637 9.13232 36.2637C7.84912 36.2637 6.77246 36.1758 5.90234 36C5.03223 35.8154 4.12695 35.499 3.18652 35.0508V30.4102C4.17969 30.9199 5.2124 31.3198 6.28467 31.6099C7.35693 31.8911 8.34131 32.0317 9.23779 32.0317C10.0112 32.0317 10.5781 31.8999 10.9385 31.6362C11.2988 31.3638 11.479 31.0166 11.479 30.5947C11.479 30.3311 11.4043 30.1025 11.2549 29.9092C11.1143 29.707 10.8813 29.5049 10.5562 29.3027C10.2397 29.1006 9.38721 28.6875 7.99854 28.0635C6.7417 27.4922 5.79688 26.9385 5.16406 26.4023C4.54004 25.8662 4.07422 25.251 3.7666 24.5566C3.46777 23.8623 3.31836 23.0405 3.31836 22.0913C3.31836 20.3159 3.96436 18.9316 5.25635 17.9385C6.54834 16.9453 8.32373 16.4487 10.5825 16.4487C12.5776 16.4487 14.6123 16.9102 16.6865 17.833L15.0913 21.854C13.2896 21.0278 11.7339 20.6147 10.4243 20.6147C9.74756 20.6147 9.25537 20.7334 8.94775 20.9707C8.64014 21.208 8.48633 21.5024 8.48633 21.854C8.48633 22.2319 8.67969 22.5703 9.06641 22.8691C9.46191 23.168 10.5254 23.7129 12.2568 24.5039C13.918 25.251 15.0693 26.0552 15.7109 26.9165C16.3613 27.769 16.6865 28.8457 16.6865 30.1465ZM29.3755 36L28.3867 34.0225H28.2812C27.5869 34.8838 26.8794 35.4727 26.1587 35.7891C25.438 36.1055 24.5063 36.2637 23.3638 36.2637C21.9575 36.2637 20.8501 35.8418 20.0415 34.998C19.2329 34.1543 18.8286 32.9678 18.8286 31.4385C18.8286 29.8477 19.3823 28.6655 20.4897 27.8921C21.5971 27.1099 23.2012 26.6704 25.3017 26.5737L27.7934 26.4946V26.2837C27.7934 25.0532 27.187 24.438 25.9741 24.438C24.8843 24.438 23.5 24.8071 21.8213 25.5454L20.3315 22.144C22.0718 21.2476 24.269 20.7993 26.9233 20.7993C28.8393 20.7993 30.3203 21.2739 31.3662 22.2231C32.4209 23.1724 32.9482 24.4995 32.9482 26.2046V36H29.3755ZM25.5522 32.625C26.1763 32.625 26.708 32.4272 27.1474 32.0317C27.5957 31.6362 27.8198 31.1221 27.8198 30.4893V29.3291L26.6333 29.3818C24.937 29.4434 24.0888 30.0674 24.0888 31.2539C24.0888 32.168 24.5766 32.625 25.5522 32.625ZM40.6406 36L34.9453 21.063H40.3242L42.8554 29.896C42.8642 29.9399 42.8818 30.0146 42.9082 30.1201C42.9345 30.2256 42.9609 30.353 42.9873 30.5024C43.0136 30.6431 43.0356 30.7969 43.0532 30.9639C43.0796 31.1221 43.0927 31.2715 43.0927 31.4121H43.185C43.185 30.9551 43.2641 30.4585 43.4223 29.9224L46.0722 21.063H51.438L45.7426 36H40.6406ZM58.6821 36H53.5273V21.063H58.6821V36ZM53.3955 17.3452C53.3955 16.5718 53.6108 15.9961 54.0414 15.6182C54.4721 15.2402 55.1664 15.0513 56.1245 15.0513C57.0825 15.0513 57.7812 15.2446 58.2206 15.6313C58.6601 16.0181 58.8798 16.5894 58.8798 17.3452C58.8798 18.8569 57.9614 19.6128 56.1245 19.6128C54.3051 19.6128 53.3955 18.8569 53.3955 17.3452ZM71.9775 36V27.8525C71.9775 26.8594 71.8324 26.1123 71.5424 25.6113C71.2612 25.1016 70.8041 24.8467 70.1713 24.8467C69.3012 24.8467 68.6728 25.1938 68.2861 25.8882C67.8993 26.5825 67.706 27.7734 67.706 29.4609V36H62.5512V21.063H66.4404L67.0863 22.9087H67.3896C67.829 22.2056 68.4355 21.6782 69.2089 21.3267C69.9911 20.9751 70.8876 20.7993 71.8984 20.7993C73.5507 20.7993 74.8339 21.2783 75.748 22.2363C76.6708 23.1943 77.1322 24.5435 77.1322 26.2837V36H71.9775ZM95.0023 21.063V23.5547L92.9589 24.3062C93.2401 24.8159 93.3808 25.4092 93.3808 26.0859C93.3808 27.6943 92.8139 28.9424 91.6801 29.8301C90.5551 30.7178 88.872 31.1616 86.6308 31.1616C86.077 31.1616 85.6376 31.1265 85.3124 31.0562C85.1894 31.2847 85.1278 31.5 85.1278 31.7021C85.1278 31.957 85.3344 32.1548 85.7475 32.2954C86.1605 32.4272 86.7011 32.4932 87.369 32.4932H89.8476C93.1962 32.4932 94.8705 33.9038 94.8705 36.7251C94.8705 38.5444 94.0927 39.9595 92.537 40.9702C90.9901 41.981 88.8148 42.4863 86.0111 42.4863C83.893 42.4863 82.2582 42.1304 81.1068 41.4185C79.9643 40.7153 79.393 39.7002 79.393 38.373C79.393 36.5889 80.5004 35.4375 82.7152 34.9189C82.2582 34.7256 81.8583 34.4136 81.5155 33.9829C81.1815 33.5522 81.0145 33.126 81.0145 32.7041C81.0145 32.2383 81.142 31.8296 81.3969 31.478C81.6518 31.1177 82.1835 30.6914 82.9921 30.1992C82.2187 29.8564 81.6078 29.3203 81.1596 28.5908C80.7201 27.8613 80.5004 26.9736 80.5004 25.9277C80.5004 24.3018 81.0541 23.0405 82.1615 22.144C83.2689 21.2476 84.851 20.7993 86.9076 20.7993C87.1801 20.7993 87.6503 20.8301 88.3183 20.8916C88.9862 20.9531 89.4784 21.0103 89.7948 21.063H95.0023ZM83.7436 37.8589C83.7436 38.2808 83.9721 38.6191 84.4291 38.874C84.8861 39.1377 85.497 39.2695 86.2616 39.2695C87.5097 39.2695 88.5072 39.1113 89.2543 38.7949C90.0102 38.4873 90.3881 38.0874 90.3881 37.5952C90.3881 37.1997 90.1596 36.9185 89.7025 36.7515C89.2455 36.5933 88.5907 36.5142 87.7382 36.5142H85.7211C85.1674 36.5142 84.6972 36.6416 84.3104 36.8965C83.9325 37.1602 83.7436 37.481 83.7436 37.8589ZM85.3651 25.9541C85.3651 27.4834 85.8969 28.248 86.9604 28.248C87.4525 28.248 87.8305 28.0591 88.0941 27.6812C88.3666 27.3032 88.5028 26.7363 88.5028 25.9805C88.5028 24.4336 87.9887 23.6602 86.9604 23.6602C85.8969 23.6602 85.3651 24.4248 85.3651 25.9541ZM109.089 31.4121C109.089 33.0117 108.544 34.2202 107.454 35.0376C106.364 35.855 104.8 36.2637 102.761 36.2637C101.653 36.2637 100.691 36.2021 99.8734 36.0791C99.056 35.9648 98.2211 35.7495 97.3685 35.4331V31.3066C98.1683 31.6582 99.0429 31.9482 99.9921 32.1768C100.95 32.4053 101.803 32.5195 102.55 32.5195C103.666 32.5195 104.224 32.2646 104.224 31.7549C104.224 31.4912 104.066 31.2583 103.749 31.0562C103.442 30.8452 102.537 30.4409 101.034 29.8433C99.6625 29.2808 98.7045 28.6436 98.1596 27.9316C97.6146 27.2109 97.3422 26.3013 97.3422 25.2026C97.3422 23.814 97.8783 22.7329 98.9506 21.9595C100.023 21.186 101.539 20.7993 103.499 20.7993C104.483 20.7993 105.406 20.9092 106.267 21.1289C107.138 21.3398 108.038 21.6519 108.97 22.0649L107.573 25.3872C106.887 25.0796 106.162 24.8203 105.397 24.6094C104.633 24.3896 104.009 24.2798 103.525 24.2798C102.682 24.2798 102.26 24.4863 102.26 24.8994C102.26 25.1543 102.405 25.374 102.695 25.5586C102.994 25.7344 103.846 26.0991 105.252 26.6528C106.298 27.0835 107.076 27.5054 107.586 27.9185C108.104 28.3315 108.482 28.8193 108.72 29.3818C108.966 29.9355 109.089 30.6123 109.089 31.4121ZM130.558 26.3364C130.558 29.5796 129.763 32.0449 128.172 33.7324C126.581 35.4199 124.252 36.2637 121.184 36.2637C118.161 36.2637 115.841 35.4155 114.223 33.7192C112.615 32.0229 111.811 29.5532 111.811 26.3101C111.811 23.1021 112.611 20.6543 114.21 18.9668C115.819 17.2705 118.152 16.4224 121.211 16.4224C124.278 16.4224 126.603 17.2617 128.185 18.9404C129.767 20.6191 130.558 23.0845 130.558 26.3364ZM117.295 26.3364C117.295 30.063 118.592 31.9263 121.184 31.9263C122.503 31.9263 123.478 31.4736 124.111 30.5684C124.753 29.6631 125.074 28.2524 125.074 26.3364C125.074 24.4116 124.748 22.9922 124.098 22.0781C123.456 21.1553 122.494 20.6938 121.211 20.6938C118.6 20.6938 117.295 22.5747 117.295 26.3364ZM143.748 36L142.759 34.0225H142.654C141.959 34.8838 141.252 35.4727 140.531 35.7891C139.81 36.1055 138.879 36.2637 137.736 36.2637C136.33 36.2637 135.223 35.8418 134.414 34.998C133.605 34.1543 133.201 32.9678 133.201 31.4385C133.201 29.8477 133.755 28.6655 134.862 27.8921C135.97 27.1099 137.574 26.6704 139.674 26.5737L142.166 26.4946V26.2837C142.166 25.0532 141.559 24.438 140.347 24.438C139.257 24.438 137.872 24.8071 136.194 25.5454L134.704 22.144C136.444 21.2476 138.641 20.7993 141.296 20.7993C143.212 20.7993 144.693 21.2739 145.739 22.2231C146.793 23.1724 147.321 24.4995 147.321 26.2046V36H143.748ZM139.925 32.625C140.549 32.625 141.08 32.4272 141.52 32.0317C141.968 31.6362 142.192 31.1221 142.192 30.4893V29.3291L141.006 29.3818C139.309 29.4434 138.461 30.0674 138.461 31.2539C138.461 32.168 138.949 32.625 139.925 32.625ZM156.094 27.6021C156.718 26.6089 157.25 25.8354 157.689 25.2817L161.038 21.063H166.786L161.605 27.4175L167.116 36H161.222L157.953 30.6475L156.279 31.9263V36H151.097V15.4863H156.279V23.5547C156.279 24.9346 156.182 26.2837 155.989 27.6021H156.094Z" fill="#141414"/>
</svg>
