<?xml version="1.0" encoding="UTF-8"?>
<svg width="266px" height="40px" viewBox="0 0 266 40" version="1.1" xmlns="http://www.w3.org/2000/svg" xmlns:xlink="http://www.w3.org/1999/xlink">
    <!-- Generator: Sketch 61 (89581) - https://sketch.com -->
    <title>Artboard Copy 4</title>
    <desc>Created with Sketch.</desc>
    <g id="Artboard-Copy-4" stroke="none" stroke-width="1" fill="none" fill-rule="evenodd">
        <rect id="Rectangle" fill="#F8E71C" x="5" y="17" width="172" height="21"></rect>
        <path d="M13.608,31.384 C14.952,31.384 16.1413333,31.2133333 17.176,30.872 C18.2106667,30.5306667 19.0853333,30.0453333 19.8,29.416 C20.5146667,28.7866667 21.0586667,28.04 21.432,27.176 C21.8053333,26.312 21.992,25.3466667 21.992,24.28 C21.992,22.424 21.4533333,20.9786667 20.376,19.944 C19.2986667,18.9093333 17.6293333,18.1893333 15.368,17.784 L15.368,17.784 L13.288,17.4 C12.2,17.208 11.4106667,16.9093333 10.92,16.504 C10.4293333,16.0986667 10.184,15.4693333 10.184,14.616 C10.184,13.784 10.488,13.1386667 11.096,12.68 C11.704,12.2213333 12.616,11.992 13.832,11.992 C15.0266667,11.992 16.0186667,12.2053333 16.808,12.632 C17.5973333,13.0586667 18.2693333,13.6133333 18.824,14.296 L18.824,14.296 L21.704,11.576 C20.808,10.488 19.7306667,9.66666667 18.472,9.112 C17.2133333,8.55733333 15.7413333,8.28 14.056,8.28 C12.7973333,8.28 11.672,8.43466667 10.68,8.744 C9.688,9.05333333 8.84,9.496 8.136,10.072 C7.432,10.648 6.89333333,11.3413333 6.52,12.152 C6.14666667,12.9626667 5.96,13.8693333 5.96,14.872 C5.96,18.4986667 8.18933333,20.664 12.648,21.368 L12.648,21.368 L14.76,21.688 C15.9333333,21.9013333 16.7333333,22.2426667 17.16,22.712 C17.5866667,23.1813333 17.8,23.7893333 17.8,24.536 C17.8,25.496 17.4693333,26.2586667 16.808,26.824 C16.1466667,27.3893333 15.1653333,27.672 13.864,27.672 C12.712,27.672 11.6613333,27.4373333 10.712,26.968 C9.76266667,26.4986667 8.904,25.816 8.136,24.92 L8.136,24.92 L5.288,27.672 C6.248,28.7813333 7.39466667,29.6773333 8.728,30.36 C10.0613333,31.0426667 11.688,31.384 13.608,31.384 Z M30.44,31 L30.44,22.392 L34.44,22.392 L38.6,31 L43.304,31 L38.728,21.912 C40.1146667,21.4426667 41.1546667,20.6533333 41.848,19.544 C42.5413333,18.4346667 42.888,17.112 42.888,15.576 C42.888,14.5306667 42.7333333,13.5813333 42.424,12.728 C42.1146667,11.8746667 41.6773333,11.144 41.112,10.536 C40.5466667,9.928 39.8586667,9.464 39.048,9.144 C38.2373333,8.824 37.32,8.664 36.296,8.664 L36.296,8.664 L26.216,8.664 L26.216,31 L30.44,31 Z M35.88,18.84 L30.44,18.84 L30.44,12.344 L35.88,12.344 C36.6906667,12.344 37.3306667,12.5573333 37.8,12.984 C38.2693333,13.4106667 38.504,14.0293333 38.504,14.84 L38.504,14.84 L38.504,16.312 C38.504,17.1226667 38.2693333,17.7466667 37.8,18.184 C37.3306667,18.6213333 36.6906667,18.84 35.88,18.84 L35.88,18.84 Z M56.68,31 L56.68,27.608 L53.704,27.608 L53.704,12.056 L56.68,12.056 L56.68,8.664 L46.536,8.664 L46.536,12.056 L49.48,12.056 L49.48,27.608 L46.536,27.608 L46.536,31 L56.68,31 Z M65.224,31 L65.224,22.392 L69.224,22.392 L73.384,31 L78.088,31 L73.512,21.912 C74.8986667,21.4426667 75.9386667,20.6533333 76.632,19.544 C77.3253333,18.4346667 77.672,17.112 77.672,15.576 C77.672,14.5306667 77.5173333,13.5813333 77.208,12.728 C76.8986667,11.8746667 76.4613333,11.144 75.896,10.536 C75.3306667,9.928 74.6426667,9.464 73.832,9.144 C73.0213333,8.824 72.104,8.664 71.08,8.664 L71.08,8.664 L61,8.664 L61,31 L65.224,31 Z M70.664,18.84 L65.224,18.84 L65.224,12.344 L70.664,12.344 C71.4746667,12.344 72.1146667,12.5573333 72.584,12.984 C73.0533333,13.4106667 73.288,14.0293333 73.288,14.84 L73.288,14.84 L73.288,16.312 C73.288,17.1226667 73.0533333,17.7466667 72.584,18.184 C72.1146667,18.6213333 71.4746667,18.84 70.664,18.84 L70.664,18.84 Z M84.584,31 L86.344,25.304 L94.28,25.304 L96.072,31 L100.456,31 L93.032,8.664 L87.784,8.664 L80.296,31 L84.584,31 Z M93.256,21.688 L87.368,21.688 L90.216,12.504 L90.376,12.504 L93.256,21.688 Z M107.752,31 L107.752,14.968 L107.88,14.968 L109.608,18.52 L114.184,26.968 L118.76,18.52 L120.488,14.968 L120.616,14.968 L120.616,31 L124.616,31 L124.616,8.664 L120.04,8.664 L114.376,19.576 L114.248,19.576 L108.52,8.664 L103.752,8.664 L103.752,31 L107.752,31 Z M141.64,31 L141.64,22.488 L147.464,22.488 C148.488,22.488 149.410667,22.3226667 150.232,21.992 C151.053333,21.6613333 151.752,21.192 152.328,20.584 C152.904,19.976 153.341333,19.2506667 153.64,18.408 C153.938667,17.5653333 154.088,16.6213333 154.088,15.576 C154.088,14.552 153.938667,13.6133333 153.64,12.76 C153.341333,11.9066667 152.904,11.176 152.328,10.568 C151.752,9.96 151.053333,9.49066667 150.232,9.16 C149.410667,8.82933333 148.488,8.664 147.464,8.664 L147.464,8.664 L137.416,8.664 L137.416,31 L141.64,31 Z M147.08,18.84 L141.64,18.84 L141.64,12.344 L147.08,12.344 C147.890667,12.344 148.530667,12.5573333 149,12.984 C149.469333,13.4106667 149.704,14.0293333 149.704,14.84 L149.704,14.84 L149.704,16.312 C149.704,17.1226667 149.469333,17.7466667 149,18.184 C148.530667,18.6213333 147.890667,18.84 147.08,18.84 L147.08,18.84 Z M162.152,31 L162.152,24.408 L165.128,20.888 L171.496,31 L176.52,31 L168.104,17.976 L175.88,8.664 L171.016,8.664 L165.48,15.48 L162.312,19.672 L162.152,19.672 L162.152,8.664 L157.928,8.664 L157.928,31 L162.152,31 Z" id="SRIRAMPK" fill="#182538" fill-rule="nonzero"></path>
    </g>
</svg>