<svg width="266" height="40" viewBox="0 0 266 40" fill="none" xmlns="http://www.w3.org/2000/svg">
<path d="M5.73682 25.1128C5.87809 26.132 6.1556 26.8939 6.56934 27.3984C7.32617 28.3167 8.62288 28.7759 10.4595 28.7759C11.5594 28.7759 12.4525 28.6548 13.1387 28.4126C14.4404 27.9484 15.0913 27.0856 15.0913 25.8242C15.0913 25.0876 14.7684 24.5174 14.1226 24.1138C13.4767 23.7202 12.4626 23.3721 11.0801 23.0693L8.71875 22.5396C6.39779 22.0148 4.79329 21.4447 3.90527 20.8291C2.40169 19.7998 1.6499 18.1903 1.6499 16.0005C1.6499 14.0024 2.37646 12.3424 3.82959 11.0205C5.28271 9.69857 7.41699 9.0376 10.2324 9.0376C12.5837 9.0376 14.5868 9.66325 16.2417 10.9146C17.9067 12.1558 18.7796 13.9621 18.8604 16.3335H14.3799C14.2992 14.9914 13.7139 14.0378 12.624 13.4727C11.8975 13.0993 10.9943 12.9126 9.91455 12.9126C8.7137 12.9126 7.75505 13.1548 7.03857 13.6392C6.3221 14.1235 5.96387 14.7996 5.96387 15.6675C5.96387 16.4647 6.31706 17.0601 7.02344 17.4536C7.47754 17.716 8.44629 18.0238 9.92969 18.377L13.7744 19.3003C15.4596 19.7039 16.7311 20.2438 17.5889 20.9199C18.9209 21.9694 19.5869 23.4881 19.5869 25.4761C19.5869 27.5145 18.8049 29.2098 17.2407 30.562C15.6867 31.9041 13.4868 32.5752 10.6411 32.5752C7.73486 32.5752 5.44922 31.9142 3.78418 30.5923C2.11914 29.2603 1.28662 27.4338 1.28662 25.1128H5.73682ZM27.7002 13.5635V19.5576H32.9829C34.0324 19.5576 34.8195 19.4365 35.3442 19.1943C36.2726 18.7705 36.7368 17.9329 36.7368 16.6816C36.7368 15.3294 36.2878 14.4212 35.3896 13.957C34.8851 13.6947 34.1283 13.5635 33.1191 13.5635H27.7002ZM34.0879 9.68848C35.652 9.71875 36.8529 9.91048 37.6904 10.2637C38.5381 10.6169 39.2546 11.1366 39.8398 11.8228C40.3242 12.3879 40.7077 13.0135 40.9902 13.6997C41.2728 14.3859 41.4141 15.168 41.4141 16.0459C41.4141 17.1055 41.1466 18.1499 40.6118 19.1792C40.077 20.1984 39.194 20.9199 37.9629 21.3438C38.9922 21.7575 39.7188 22.3478 40.1426 23.1147C40.5765 23.8716 40.7935 25.0321 40.7935 26.5962V28.0947C40.7935 29.1139 40.8338 29.8052 40.9146 30.1685C41.0356 30.7437 41.3182 31.1675 41.7622 31.4399V32H36.6309C36.4896 31.5055 36.3887 31.1069 36.3281 30.8042C36.207 30.1785 36.1414 29.5378 36.1313 28.8818L36.1011 26.8081C36.0809 25.3853 35.8185 24.4367 35.314 23.9624C34.8195 23.4881 33.8861 23.251 32.5137 23.251H27.7002V32H23.144V9.68848H34.0879ZM49.709 32H45.0771V9.68848H49.709V32ZM58.7305 13.5635V19.5576H64.0132C65.0627 19.5576 65.8498 19.4365 66.3745 19.1943C67.3029 18.7705 67.7671 17.9329 67.7671 16.6816C67.7671 15.3294 67.318 14.4212 66.4199 13.957C65.9154 13.6947 65.1585 13.5635 64.1494 13.5635H58.7305ZM65.1182 9.68848C66.6823 9.71875 67.8831 9.91048 68.7207 10.2637C69.5684 10.6169 70.2848 11.1366 70.8701 11.8228C71.3545 12.3879 71.738 13.0135 72.0205 13.6997C72.3031 14.3859 72.4443 15.168 72.4443 16.0459C72.4443 17.1055 72.1769 18.1499 71.6421 19.1792C71.1073 20.1984 70.2243 20.9199 68.9932 21.3438C70.0225 21.7575 70.749 22.3478 71.1729 23.1147C71.6068 23.8716 71.8237 25.0321 71.8237 26.5962V28.0947C71.8237 29.1139 71.8641 29.8052 71.9448 30.1685C72.0659 30.7437 72.3485 31.1675 72.7925 31.4399V32H67.6611C67.5199 31.5055 67.4189 31.1069 67.3584 30.8042C67.2373 30.1785 67.1717 29.5378 67.1616 28.8818L67.1313 26.8081C67.1112 25.3853 66.8488 24.4367 66.3442 23.9624C65.8498 23.4881 64.9163 23.251 63.5439 23.251H58.7305V32H54.1743V9.68848H65.1182ZM82.5708 23.5688H88.2319L85.4468 14.7896L82.5708 23.5688ZM82.8584 9.68848H88.126L96.0273 32H90.9717L89.5337 27.4136H81.3145L79.7705 32H74.8965L82.8584 9.68848ZM113.662 9.68848H120.367V32H116.023V16.9087C116.023 16.4748 116.028 15.8693 116.038 15.0923C116.048 14.3052 116.053 13.6997 116.053 13.2759L111.83 32H107.304L103.111 13.2759C103.111 13.6997 103.116 14.3052 103.126 15.0923C103.137 15.8693 103.142 16.4748 103.142 16.9087V32H98.7974V9.68848H105.579L109.635 27.2319L113.662 9.68848ZM145.888 16.7876C145.888 15.6271 145.58 14.7996 144.964 14.3052C144.359 13.8107 143.506 13.5635 142.406 13.5635H138.062V20.1328H142.406C143.506 20.1328 144.359 19.8654 144.964 19.3306C145.58 18.7957 145.888 17.9481 145.888 16.7876ZM150.504 16.7573C150.504 19.3911 149.838 21.2529 148.506 22.3428C147.174 23.4326 145.272 23.9775 142.8 23.9775H138.062V32H133.43V9.68848H143.148C145.388 9.68848 147.174 10.2637 148.506 11.4141C149.838 12.5645 150.504 14.3455 150.504 16.7573ZM154.077 9.68848H158.663V18.8765L167.276 9.68848H173.3L164.158 18.8765L173.77 32H167.775L160.888 22.252L158.663 24.5376V32H154.077V9.68848Z" fill="white"/>
</svg>
