<?xml version="1.0" encoding="UTF-8"?>
<svg width="750px" height="545px" viewBox="0 0 750 545" version="1.1" xmlns="http://www.w3.org/2000/svg" xmlns:xlink="http://www.w3.org/1999/xlink">
    <!-- Generator: Sketch 57.1 (83088) - https://sketch.com -->
    <title>Artboard Copy 12</title>
    <desc>Created with Sketch.</desc>
    <g id="Artboard-Copy-12" stroke="none" stroke-width="1" fill="none" fill-rule="evenodd">
        <rect fill="#F88379" x="0" y="0" width="750" height="545"></rect>
        <path d="M313.016,295 L280.112,295 L280.112,246.976 L313.016,246.976 L313.016,254.392 L288.536,254.392 L288.536,266.848 L312.512,266.848 L312.512,274.264 L288.536,274.264 L288.536,287.584 L313.016,287.584 L313.016,295 Z M352.396,295 L343.9,295 L334.9,282.184 L325.828,295 L317.404,295 L330.148,277.144 L318.124,260.224 L326.62,260.224 L334.9,272.032 L343.108,260.224 L351.604,260.224 L339.58,277.144 L352.396,295 Z M376.872,295.864 C372.263977,295.864 368.544014,293.968019 365.712,290.176 L365.712,308.248 L358.152,308.248 L358.152,260.224 L365.712,260.224 L365.712,264.976 C368.496014,261.231981 372.215977,259.36 376.872,259.36 C381.432023,259.36 385.139986,260.991984 387.996,264.256 C390.852014,267.520016 392.28,271.959972 392.28,277.576 C392.28,283.192028 390.852014,287.643984 387.996,290.932 C385.139986,294.220016 381.432023,295.864 376.872,295.864 Z M374.64,289.168 C377.616015,289.168 379.991991,288.088011 381.768,285.928 C383.544009,283.767989 384.432,280.984017 384.432,277.576 C384.432,274.167983 383.544009,271.396011 381.768,269.26 C379.991991,267.123989 377.616015,266.056 374.64,266.056 C372.911991,266.056 371.208008,266.511995 369.528,267.424 C367.847992,268.336005 366.576004,269.439994 365.712,270.736 L365.712,284.488 C366.576004,285.784006 367.847992,286.887995 369.528,287.8 C371.208008,288.712005 372.911991,289.168 374.64,289.168 Z M404.012,255.976 C402.763994,255.976 401.672005,255.520005 400.736,254.608 C399.799995,253.695995 399.332,252.592006 399.332,251.296 C399.332,249.999994 399.799995,248.896005 400.736,247.984 C401.672005,247.071995 402.763994,246.616 404.012,246.616 C405.308006,246.616 406.411995,247.071995 407.324,247.984 C408.236005,248.896005 408.692,249.999994 408.692,251.296 C408.692,252.592006 408.236005,253.695995 407.324,254.608 C406.411995,255.520005 405.308006,255.976 404.012,255.976 Z M407.828,295 L400.268,295 L400.268,260.224 L407.828,260.224 L407.828,295 Z M425.68,295 L418.12,295 L418.12,260.224 L425.68,260.224 L425.68,265.336 C427.024007,263.607991 428.70399,262.192006 430.72,261.088 C432.73601,259.983994 434.823989,259.432 436.984,259.432 L436.984,266.92 C436.311997,266.775999 435.520005,266.704 434.608,266.704 C433.023992,266.704 431.332009,267.171995 429.532,268.108 C427.731991,269.044005 426.448004,270.111994 425.68,271.312 L425.68,295 Z M442.092,308.608 L443.244,301.84 C444.108004,302.224 445.067995,302.416 446.124,302.416 C448.572012,302.416 450.227996,301.40801 451.092,299.392 L452.82,295.432 L438.564,260.224 L446.628,260.224 L456.78,286.288 L466.932,260.224 L475.068,260.224 L458.292,301.264 C456.22799,306.400026 452.24403,309.016 446.34,309.112 C444.755992,309.112 443.340006,308.944002 442.092,308.608 Z" id="Expiry" fill="#FFFFFF" fill-rule="nonzero"></path>
    </g>
</svg>