<?xml version="1.0" encoding="UTF-8"?>
<svg width="1178px" height="924px" viewBox="0 0 1178 924" version="1.1" xmlns="http://www.w3.org/2000/svg" xmlns:xlink="http://www.w3.org/1999/xlink">
    <!-- Generator: Sketch 57.1 (83088) - https://sketch.com -->
    <title>Artboard</title>
    <desc>Created with Sketch.</desc>
    <g id="Artboard" stroke="none" stroke-width="1" fill="none" fill-rule="evenodd">
        <path d="M36,387 L36,545 L284,545 L284,387 L36,387 Z M36,550 L36,686.353111 C37.4145447,686.644356 38.8164596,686.935601 40.2183744,687.176194 C42.1128539,687.543415 44.0073335,687.872648 45.9144429,688.163893 C46.2807089,688.163893 46.6596048,688.277858 47.0385007,688.315847 C47.7962925,688.442475 48.5667142,688.543777 49.324506,688.64508 C51.2316154,688.910999 53.1134651,689.126266 55.0710939,689.303546 L57.7991444,689.544139 L60.0093705,689.708755 L60.0093705,689.708755 C61.2092076,689.797395 62.3964147,689.873372 63.5836219,689.91136 C64.316154,689.91136 65.0486861,689.91136 65.793848,690 L67.5367692,690 L69.6964759,690 C70.6816052,690 71.6667346,690 72.6392341,690 L73.9022204,690 C74.8873498,690 75.8724791,690 76.8449786,689.91136 C76.8449786,689.91136 76.8449786,689.91136 76.8449786,689.91136 C76.8449786,689.91136 76.8449786,689.91136 76.8449786,689.91136 C77.5269912,689.91136 78.2090039,689.91136 78.8910165,689.822721 C79.0844708,689.835314 79.278536,689.835314 79.4719902,689.822721 C80.0403341,689.822721 80.6086779,689.822721 81.1643919,689.746744 L81.5559177,689.746744 L85.3448768,689.442836 C86.6078631,689.328871 87.8708495,689.18958 89.1338358,689.050289 L91.7355877,688.733719 C102.349891,687.244532 112.846126,685.006095 123.146058,682.035094 C146.283968,675.564399 168.866164,666.510492 192.041964,659.887844 C222.113669,651.264472 255.153392,647.098408 284,657.469247 L284,550 L36,550 Z M284,210.701504 L284,0.019253716 C256.850367,-0.279274708 229.773998,2.89481106 203.429677,9.46428357 C140.627763,25.2354631 84.2411651,59.4547558 36,103.156959 L36,210.701504 L48.4391486,210.701504 L48.4391486,215.58817 L36,215.58817 L36,382 L284,382 L284,215.58817 L99.6227722,215.58817 L99.6227722,210.701504 L284,210.701504 Z M602.935765,139.92083 C587.396619,139.365918 571.945907,134.459993 557.960676,126.867789 C531.240925,112.36441 509.852491,89.9535361 486.038434,71.0486966 C436.502669,31.6625634 375.028292,7.88963312 312,2 L312,211 L666.128292,211 L667,210.066739 L602.935765,139.92083 Z M635,133.750933 L669,171 L669,124 C657.587149,125.403733 647.618168,128.787733 635.025111,133.750933 L635,133.750933 Z M669.861562,720.066893 L669.861562,550.187666 L596.849759,550.187666 C596.660019,549.466874 596.45763,548.733437 596.229943,548 C596.444981,548.733437 596.63472,549.466874 596.837109,550.187666 L312,550.187666 L312,673.05104 C314.706952,675.06167 317.375956,677.173463 320.019661,679.310547 L320.019661,679.310547 C322.878405,681.637313 325.6992,684.014661 328.532645,686.39201 L331.378739,688.744067 C332.744865,689.882159 334.123639,690.99496 335.502414,692.120407 C338.259963,694.346009 341.038594,696.546321 343.838307,698.721342 C345.229731,699.821497 346.646454,700.896362 348.050527,701.971227 C370.433198,719.071822 394.041194,734.507036 418.684261,748.152479 C424.207792,751.221112 429.78192,754.201228 435.406645,757.092825 C439.15084,759.014936 442.916118,760.903326 446.702477,762.757995 C452.386233,765.531568 458.112152,768.216622 463.880237,770.813159 L463.880237,770.813159 C517.141626,794.712114 573.461822,811.109383 631.230577,819.53615 C644.056975,821.42454 656.93397,822.91249 669.861562,824 L669.861562,720.066893 L671,720.066893 L669.861562,720.066893 Z M312,216 L312,382 L669,382 L669,216 L312,216 Z M312,387 L312,545 L669,545 L669,387 L312,387 Z M697,124 L697,177 L741,129.044609 C726.426698,126.684558 711.760031,125.003022 697,124 Z M697,387 L697,545 L1045,545 L1045,387 L697,387 Z M1043.73556,732.330349 L1045,550 L697,550 L697,825.454027 C719.412626,826.391494 741.85952,826.121545 764.243078,824.645355 L764.243078,824.645355 L764.635056,824.645355 C775.306954,823.963038 785.94935,822.985892 796.562241,821.713918 L796.802485,821.713918 C853.311791,815.143482 908.566966,800.408386 960.838675,777.969796 L1043.73556,732.330349 Z M1111.55932,412.975886 C1110.23729,409.897637 1108.87712,406.844618 1107.47881,403.816832 C1104.93644,398.152347 1102.12712,392.550942 1099.29237,387 L1072,387 L1072,545 L1141,545 C1140.94915,500.277068 1129.5339,454.494411 1111.57203,412.862344 L1111.55932,412.975886 Z M1072,550.113832 L1072,707 C1091.45077,688.470636 1107.88662,667.259889 1119.71737,643.013615 C1133.95243,613.809313 1140.44027,582.201885 1141,550 L1072,550.113832 Z M1072,341.112706 L1072,382 L1097,382 C1089.43177,367.906143 1081.09065,354.219671 1072.01285,341 L1072,341.112706 Z M836.457222,154.847619 C834.647766,154.149206 832.825657,153.450794 831.003547,152.777778 C811.784715,145.635465 792.142346,139.698107 772.189909,135 L705.265354,208.650794 L705.265354,208.650794 L704,210.060317 L704.86044,211 L943,211 C909.821874,188.122758 874.058005,169.273743 836.457222,154.847619 L836.457222,154.847619 Z M950.276011,216 L701.881637,216 L697,220.458912 L697,382 L739.783879,382 L739.783879,382 L739.783879,382 L1045,382 L1045,303.717126 C1017.40924,270.481422 985.563307,240.991172 950.276011,216 L950.276011,216 Z" id="Shape" fill="#6C63FF" fill-rule="nonzero" opacity="0.1"></path>
        <rect id="Rectangle" fill="#3F3D56" fill-rule="nonzero" x="397" y="260" width="554" height="226"></rect>
        <path d="M476,344 L435.093645,344 C432.302118,327.787055 432.302118,311.212945 435.093645,295 L476,295 C471.39158,311.005236 471.39158,327.994764 476,344 L476,344 Z" id="Path" fill="#FF6584" fill-rule="nonzero"></path>
        <path d="M513,365 L553.906355,365 C556.697882,348.787055 556.697882,332.212945 553.906355,316 L513,316 C517.608421,332.005236 517.608421,348.994764 513,365 Z" id="Path" fill="#6C63FF" fill-rule="nonzero"></path>
        <path d="M604.5153,292.900485 C611.2667,327.02453 613.188726,361.932919 610.224643,396.59522 C609.445409,405.620324 608.332427,414.607454 606.885696,423.556612 C606.225707,427.625071 605.474098,431.674383 604.701787,435.722566 C604.259256,438.042148 603.330843,440.930047 604.784839,443.113366 C607.616964,447.366077 617.322267,446.256238 621.599022,446.395035 C630.496235,446.683791 639.406317,446.732389 648.306716,446.888208 L675.083161,447.356992 L687.975518,447.582704 C692.368188,447.659575 697.179343,448.34259 701.537359,447.778985 C707.272887,447.037228 705.875669,441.011869 705.788835,436.535344 C705.617178,427.685473 705.381971,418.83715 705.083215,409.990374 C703.899963,374.932106 701.72168,339.926633 698.548366,304.973955 C698.143426,300.514831 698.396404,295.179914 697.19883,290.868352 C696.714679,289.125274 696.233036,288.621279 694.346074,288.308204 C690.023141,287.590956 684.871576,288.34621 680.497855,288.376739 L665.873086,288.478828 L606.399017,288.893992 C605.594658,288.921947 604.956994,289.584138 604.956994,290.391482 C604.956994,291.198825 605.594658,291.861017 606.399017,291.888971 L655.148256,291.548672 L676.597915,291.398923 L688.297735,291.31725 C690.702347,291.300468 692.949812,290.570092 694.457879,293.224053 C695.412108,294.903338 695.021121,299.102628 695.202741,301.056533 C698.115616,332.39276 700.228515,363.790038 701.54144,395.248368 C701.869482,403.109529 702.147411,410.972578 702.375226,418.837513 C702.470151,422.114479 702.556368,425.391685 702.633877,428.669131 C702.680388,430.635581 702.72376,432.602111 702.763994,434.568721 C702.805495,436.59712 703.642386,440.572286 702.908213,442.435423 C701.342552,446.408642 694.363541,444.699547 690.950718,444.639797 L679.05008,444.431447 L655.248804,444.014755 L631.447519,443.598054 C627.5119,443.529169 623.572429,443.49904 619.639388,443.330832 C618.334707,443.275035 617.028285,443.212291 615.725425,443.119187 C611.845818,442.842081 607.669432,443.761859 607.208162,438.383526 C606.923525,435.06425 608.733078,430.487153 609.29827,427.166869 C609.936546,423.417415 610.516333,419.658603 611.037629,415.890433 C612.012831,408.850482 612.789866,401.78699 613.368733,394.699957 C616.102154,360.388648 614.091644,325.862978 607.39435,292.10426 C607.021824,290.215177 604.143461,291.014847 604.5153,292.900445 L604.5153,292.900485 Z" id="Path" fill="#F1F1F1" fill-rule="nonzero"></path>
        <path d="M617.465473,301 L637.534527,301 C638.351966,300.971999 639,300.308697 639,299.5 C639,298.691303 638.351966,298.028001 637.534527,298 L617.465473,298 C616.648034,298.028001 616,298.691303 616,299.5 C616,300.308697 616.648034,300.971999 617.465473,301 L617.465473,301 Z" id="Path" fill="#F1F1F1" fill-rule="nonzero"></path>
        <path d="M617.473897,307.998583 L636.526111,307.236242 C638.486465,307.157809 638.496122,303.922595 636.526111,304.001417 L617.473897,304.763758 C615.513533,304.842191 615.503876,308.077405 617.473897,307.998583 Z" id="Path" fill="#F1F1F1" fill-rule="nonzero"></path>
        <path d="M618.446203,313 L636.553797,313 C637.360487,312.971999 638,312.308697 638,311.5 C638,310.691303 637.360487,310.028001 636.553797,310 L618.446203,310 C617.639513,310.028001 617,310.691303 617,311.5 C617,312.308697 617.639513,312.971999 618.446203,313 L618.446203,313 Z" id="Path" fill="#F1F1F1" fill-rule="nonzero"></path>
        <path d="M678.516315,299.650138 C674.440682,297.500722 670.741329,301.035228 670.167357,305.0734 C669.886706,307.047964 669.82604,309.746732 671.070645,311.424055 C672.341715,313.137008 674.786593,313.855243 676.816748,313.981861 C680.692875,314.223643 684.817002,312.038334 685.770587,308.026556 C686.701392,304.337683 684.725326,300.534064 681.192338,299.21414 C679.36264,298.573316 678.576401,301.504043 680.394077,302.140659 C682.125036,302.867961 683.172199,304.663836 682.963192,306.546665 C682.718158,308.7127 681.079017,310.450439 678.950057,310.801197 C676.471757,311.377337 673.567222,310.759021 673.088017,307.933282 C672.729524,305.819334 673.865369,300.617177 677.000748,302.270726 C678.712066,303.173253 680.232027,300.554981 678.516315,299.650158 L678.516315,299.650138 Z" id="Path" fill="#F1F1F1" fill-rule="nonzero"></path>
        <path d="M622.441417,329.988163 C644.153123,330.216133 665.842507,329.546759 687.509568,327.98004 L686.070699,326.093938 C682.524,335.067713 682.621677,344.525896 683.0918,354.018936 C683.209582,356.397353 683.956791,359.604688 683.473478,361.960438 C682.865667,364.922985 680.202373,364.214739 677.553672,364.300265 C671.719567,364.488654 665.884096,364.624025 660.047258,364.706379 C654.534977,364.784157 649.022282,364.814802 643.509173,364.798312 C640.914913,364.790193 638.320706,364.771803 635.726552,364.743142 C632.680258,364.70924 629.217559,365.592522 628.430897,362.069089 C627.927001,359.812156 628.434388,356.843599 628.43594,354.522546 L628.44162,346.032684 L628.452971,329.052949 C628.425115,328.250126 627.765276,327.613678 626.960801,327.613678 C626.156326,327.613678 625.496487,328.250126 625.468631,329.052949 L625.454704,349.80595 L625.448397,359.239131 C625.447144,361.112856 625.05729,363.376584 625.757913,365.155425 C627.369536,369.247274 634.333671,367.712107 637.672113,367.742791 C644.481805,367.805371 651.291654,367.79505 658.101658,367.711829 C664.911171,367.629501 671.719275,367.475167 678.52597,367.248826 C681.458223,367.15142 685.51594,367.81741 686.405382,364.206196 C687.02896,361.674398 686.301925,358.373342 686.168893,355.789801 C686.01706,352.841488 685.853956,349.892509 685.814334,346.939985 C685.721819,340.045426 686.398369,333.338091 688.948388,326.886102 C689.06931,326.437883 688.975126,325.959007 688.693423,325.589745 C688.411721,325.220483 687.974385,325.002631 687.509518,325 C665.853347,326.566388 644.163963,327.235762 622.441367,327.008123 C621.637374,327.035938 621,327.694817 621,328.498123 C621,329.301429 621.637374,329.960308 622.441367,329.988123 L622.441417,329.988163 Z" id="Path" fill="#F1F1F1" fill-rule="nonzero"></path>
        <path d="M628.028092,331.962655 C637.393259,335.24212 646.523918,339.143622 655.357751,343.640533 C663.283357,347.693385 673.659126,352.120565 679.113548,359.364131 C680.256685,360.882245 682.868381,359.400266 681.710267,357.862255 C676.140425,350.465393 666.551608,346.11307 658.497139,341.908895 C648.929669,336.940606 639.014366,332.657749 628.827554,329.093293 C627.000956,328.449736 626.214816,331.3238 628.028092,331.962655 L628.028092,331.962655 Z" id="Path" fill="#F1F1F1" fill-rule="nonzero"></path>
        <path d="M686.692447,326.13664 C676.751309,330.410353 668.329128,338.644444 659.445161,344.745615 C649.829011,351.349699 639.926687,357.495691 629.738189,363.183592 C628.047658,364.13264 629.562805,366.745901 631.256544,365.795048 C641.423383,360.087503 651.325707,353.94151 660.963517,347.357071 C669.845689,341.25706 678.272142,333.020711 688.210803,328.748046 C689.985496,327.985107 688.454647,325.379014 686.692458,326.13659 L686.692447,326.13664 Z" id="Path" fill="#F1F1F1" fill-rule="nonzero"></path>
        <path d="M627.458887,387.839873 C647.820612,388.109333 668.181602,388.03871 688.541857,387.628003 C690.482492,387.588861 690.4896,384.961145 688.541857,385.000436 C668.18324,385.411137 647.82225,385.48176 627.458887,385.212306 C626.645122,385.236831 626,385.817788 626,386.526089 C626,387.234391 626.645122,387.815348 627.458887,387.839873 Z" id="Path" fill="#F1F1F1" fill-rule="nonzero"></path>
        <path d="M629.442757,400.830259 C650.148454,401.117498 670.853446,401.040184 691.557734,400.598315 C693.477128,400.557348 693.484379,397.959359 691.557734,398.000483 C670.85565,398.442351 650.150658,398.519666 629.442757,398.232426 C627.51935,398.205738 627.518812,400.80357 629.442757,400.830259 Z" id="Path" fill="#F1F1F1" fill-rule="nonzero"></path>
        <path d="M627.449203,415.997937 L686.550797,413.136773 C688.477596,413.043505 688.488532,409.908262 686.550797,410.002063 L627.449203,412.863227 C625.522404,412.956506 625.511468,416.091738 627.449203,415.997937 Z" id="Path" fill="#F1F1F1" fill-rule="nonzero"></path>
        <path d="M718.448345,373 L774.551655,373 C775.35954,372.971999 776,372.308697 776,371.5 C776,370.691303 775.35954,370.028001 774.551655,370 L718.448345,370 C717.64046,370.028001 717,370.691303 717,371.5 C717,372.308697 717.64046,372.971999 718.448345,373 L718.448345,373 Z" id="Path" fill="#F1F1F1" fill-rule="nonzero"></path>
        <path d="M637,473 L677.906355,473 C680.697882,456.787055 680.697882,440.212945 677.906355,424 L637,424 C641.608421,440.005236 641.608421,456.994764 637,473 L637,473 Z" id="Path" fill="#6C63FF" fill-rule="nonzero"></path>
        <path d="M465,436 L505.906355,436 C508.697882,419.787055 508.697882,403.212945 505.906355,387 L465,387 C469.608421,403.005236 469.608421,419.994764 465,436 Z" id="Path" fill="#6C63FF" fill-rule="nonzero"></path>
        <path d="M726,328 L766.906355,328 C769.697882,311.787055 769.697882,295.212945 766.906355,279 L726,279 C730.608421,295.005236 730.608421,311.994764 726,328 L726,328 Z" id="Path" fill="#6C63FF" fill-rule="nonzero"></path>
        <g id="undraw_close_tab_uk6g" transform="translate(406.500000, 570.000000) scale(-1, 1) translate(-406.500000, -570.000000) translate(173.000000, 298.000000)" fill-rule="nonzero">
            <polygon id="Path" fill="#F2F2F2" points="3 223.367007 1.63379903 223.367007 1.63379903 222 1.36700699 222 1.36700699 223.367007 0 223.367007 0 223.633799 1.36700699 223.633799 1.36700699 225 1.63379903 225 1.63379903 223.633799 3 223.633799"></polygon>
            <path d="M400,466.901932 L396.615385,508.392154 L381.384615,512 L378,501.176491 C378,501.176491 383.923077,471.411769 383.923077,466 L400,466.901932 Z" id="Path" fill="#A0616A"></path>
            <path d="M356.973019,439 C356.973019,439 363.95956,456.199999 366.579513,457.919999 C369.199466,459.64 358.719675,482 358.719675,482 L343,479.420006 C343,479.420006 348.239892,461.360007 343.873318,451.040004 L356.973019,439 Z" id="Path" fill="#A0616A"></path>
            <path d="M361.412023,450 C361.412023,450 367.84979,452.199203 370.424899,461.875711 C373,471.552218 373,472.431872 373,472.431872 L368.708153,482.10838 L366.133051,482.10838 C366.133051,482.10838 361.841204,497.062976 362.699574,502.341071 C363.557943,507.619166 356.690988,527.851857 344.673822,526.972175 C332.656657,526.092492 335.231758,511.137896 335.231758,511.137896 L341.240345,480.349015 C341.240345,480.349015 341.240345,472.431894 342.957083,472.431894 C344.673822,472.431894 358.407692,475.070934 358.407692,475.070934 L358.407692,477.709975 C358.407692,477.709975 368.278972,464.074913 361.412023,450 Z" id="Path" fill="#2F2E41"></path>
            <path d="M384.121914,503.381194 L384.121914,497.965366 C384.121914,497.965366 402.492596,500.67328 402.492596,503.381194 L402.492596,509.699677 C402.492596,509.699677 418.238902,544 400.743014,544 C383.247126,544 379.74794,536.778884 379.74794,536.778884 L379.74794,526.849839 C379.74794,526.849839 371,522.336636 371,519.628715 C371,516.920794 379.536588,493 379.536588,493 C379.536588,493 379.74794,506.991756 384.121914,503.381194 Z" id="Path" fill="#2F2E41"></path>
            <circle id="Oval" fill="#A0616A" cx="406" cy="39" r="28"></circle>
            <path d="M416,59.8094875 C416,59.8094875 412.521744,76.5476228 412.521744,78.309516 C412.521744,80.0714092 396,88 396,88 L381.217381,85.3571459 L376,69.5000214 C376,69.5000214 384.695658,56.285751 384.695658,51 L416,59.8094875 Z" id="Path" fill="#A0616A"></path>
            <path d="M412.413124,71.6189991 C412.413124,71.6189991 403.351166,86.4202015 390.183202,82.0195964 C382.671774,79.7338209 377.475506,72.8680947 377.302062,65 L334,80.2593516 L341.900744,144.508268 L334.877849,219.318653 L340.145012,229 L417.396944,229 C417.396944,229 420.030525,215.798164 420.908395,215.798164 C421.786265,215.798164 423.541977,213.157803 422.664121,212.277674 C421.786265,211.397544 420.03054,210.517429 420.908395,207.877062 C421.786251,205.236694 422.664121,176.192668 422.664121,176.192668 L449,99.622038 L412.413124,71.6189991 Z" id="Path" fill="#D0CDE1"></path>
            <path d="M448,239.181798 L432.159985,261 C432.159985,261 429.519995,238.272729 426,237.363638 L434.799981,231 L448,239.181798 Z" id="Path" fill="#A0616A"></path>
            <path d="M271.236401,224 C271.236401,224 247.57482,238.529651 250.203922,247.931148 C252.833024,257.332646 280,231.692134 280,230.837448 C280,229.982763 271.236401,224 271.236401,224 Z" id="Path" fill="#A0616A"></path>
            <path d="M418.595953,222.652639 L420.355016,222.652639 L422.993603,235.03159 C422.993603,235.03159 437.066101,247.410533 430.029849,266.86317 L415.957358,359.70527 L414.198295,467.578946 L398.36677,472 L380.77614,468.463157 L376.378489,324.336847 C376.378489,324.336847 370.221768,311.073722 372.860363,306.652639 C375.498958,302.231557 371.980832,303.115796 371.980832,303.115796 L353.510662,354.400006 C353.510662,354.400006 359.667383,371.200003 353.510662,376.505267 C353.510662,376.505267 354.390194,379.157892 353.510662,380.04211 C352.631131,380.926328 348.233487,384.463164 349.992543,386.231586 C351.751599,388 352.631131,386.231586 352.631131,388.884211 C352.631131,391.536836 361.426446,413.642105 357.908306,441.936834 L346.474403,459.621049 L335.920053,453.431574 L316.570366,398.610522 C316.570366,398.610522 320.968024,390.652647 316.570366,388.884211 C312.172709,387.115775 311.293191,385.347368 313.05224,382.694735 C314.811289,380.042103 314.811303,371.199996 312.172709,366.778942 C309.534114,362.357888 312.172709,355.284209 312.172709,355.284209 L321.847556,265.978952 C321.847556,265.978952 317.449898,242.105269 332.401905,229.726318 L335.040493,220 C335.040493,220 357.02876,235.915801 418.595953,222.652639 Z" id="Path" fill="#2F2E41"></path>
            <path d="M430.32502,15.846356 C430.32502,15.846356 421.313883,-3.86782459 404.042526,0.681602825 C386.771168,5.23103024 377.009102,12.0551677 376.258144,18.8793052 C375.507185,25.7034427 376.633612,35.9396526 376.633612,35.9396526 C376.633612,35.9396526 378.510933,21.9122617 390.525789,24.9452109 C402.540645,27.9781601 421.313854,25.70345 421.313854,25.70345 L424.317567,53 C424.317567,53 427.69674,48.0714567 431.451382,51.1044058 C435.206024,54.137355 442.339868,21.9122617 430.32502,15.846356 Z" id="Path" fill="#2F2E41"></path>
            <path d="M436.777833,100 L450.111138,100 C450.111138,100 461.6667,109.74096 460.777782,128.337351 L467,180.584339 C467,180.584339 467,206.265063 456.333356,224.861446 L444.777795,247 C444.777795,247 440.333348,234.602406 427,236.37352 L434.111129,217.777136 L434.111129,213.349395 C434.111129,213.349395 436.77779,209.807225 436.77779,208.921683 C436.77779,208.03614 433.222233,208.03614 435.888901,206.265063 C438.555569,204.493985 441.222223,186.783129 441.222223,186.783129 C441.222223,186.783129 440.333333,183.24096 439.444444,182.355417 C438.555555,181.469875 440.333333,178.813255 440.333333,178.813255 L438.555555,176.156634 L427,132.765063 L436.777833,100 Z" id="Path" fill="#D0CDE1"></path>
            <path d="M350.249999,77 L335.375001,79.6590847 C335.375001,79.6590847 326.624999,88.5227172 323.124997,99.1590847 L316.125002,131.06818 L304.749998,154.113636 C304.749998,154.113636 291.625029,167.40906 282,197.545456 L268,224.136368 L282.874998,233 C282.874998,233 324,184.249996 329.249999,167.409088 L352,123.090905 L350.249999,77 Z" id="Path" fill="#D0CDE1"></path>
        </g>
        <ellipse id="Oval" fill="#3F3D56" fill-rule="nonzero" cx="245" cy="856" rx="245" ry="26"></ellipse>
        <path d="M801.5153,292.900485 C808.2667,327.02453 810.188726,361.932919 807.224643,396.59522 C806.445409,405.620324 805.332427,414.607454 803.885696,423.556612 C803.225707,427.625071 802.474098,431.674383 801.701787,435.722566 C801.259256,438.042148 800.330843,440.930047 801.784839,443.113366 C804.616964,447.366077 814.322267,446.256238 818.599022,446.395035 C827.496235,446.683791 836.406317,446.732389 845.306716,446.888208 L872.083161,447.356992 L884.975518,447.582704 C889.368188,447.659575 894.179343,448.34259 898.537359,447.778985 C904.272887,447.037228 902.875669,441.011869 902.788835,436.535344 C902.617178,427.685473 902.381971,418.83715 902.083215,409.990374 C900.899963,374.932106 898.72168,339.926633 895.548366,304.973955 C895.143426,300.514831 895.396404,295.179914 894.19883,290.868352 C893.714679,289.125274 893.233036,288.621279 891.346074,288.308204 C887.023141,287.590956 881.871576,288.34621 877.497855,288.376739 L862.873086,288.478828 L803.399017,288.893992 C802.594658,288.921947 801.956994,289.584138 801.956994,290.391482 C801.956994,291.198825 802.594658,291.861017 803.399017,291.888971 L852.148256,291.548672 L873.597915,291.398923 L885.297735,291.31725 C887.702347,291.300468 889.949812,290.570092 891.457879,293.224053 C892.412108,294.903338 892.021121,299.102628 892.202741,301.056533 C895.115616,332.39276 897.228515,363.790038 898.54144,395.248368 C898.869475,403.109529 899.147404,410.972578 899.375226,418.837513 C899.470151,422.114479 899.556368,425.391685 899.633877,428.669131 C899.680388,430.635581 899.72376,432.602111 899.763994,434.568721 C899.805495,436.59712 900.642386,440.572286 899.908213,442.435423 C898.342552,446.408642 891.363541,444.699547 887.950718,444.639797 L876.05008,444.431447 L852.248804,444.014755 L828.447519,443.598054 C824.5119,443.529169 820.572429,443.49904 816.639388,443.330832 C815.334707,443.275035 814.028285,443.212291 812.725425,443.119187 C808.845818,442.842081 804.669432,443.761859 804.208162,438.383526 C803.923525,435.06425 805.733078,430.487153 806.29827,427.166869 C806.936546,423.417415 807.516333,419.658603 808.037629,415.890433 C809.012831,408.850482 809.789866,401.78699 810.368733,394.699957 C813.102154,360.388648 811.091644,325.862978 804.39435,292.10426 C804.021824,290.215177 801.143461,291.014847 801.5153,292.900445 L801.5153,292.900485 Z" id="Path" fill="#F1F1F1" fill-rule="nonzero"></path>
        <path d="M814.465473,301 L834.534527,301 C835.351966,300.971999 836,300.308697 836,299.5 C836,298.691303 835.351966,298.028001 834.534527,298 L814.465473,298 C813.648034,298.028001 813,298.691303 813,299.5 C813,300.308697 813.648034,300.971999 814.465473,301 L814.465473,301 Z" id="Path" fill="#F1F1F1" fill-rule="nonzero"></path>
        <path d="M814.473897,307.998583 L833.526111,307.236242 C835.486465,307.157809 835.496122,303.922595 833.526111,304.001417 L814.473897,304.763758 C812.513533,304.842191 812.503876,308.077405 814.473897,307.998583 Z" id="Path" fill="#F1F1F1" fill-rule="nonzero"></path>
        <path d="M815.446203,313 L833.553797,313 C834.360487,312.971999 835,312.308697 835,311.5 C835,310.691303 834.360487,310.028001 833.553797,310 L815.446203,310 C814.639513,310.028001 814,310.691303 814,311.5 C814,312.308697 814.639513,312.971999 815.446203,313 L815.446203,313 Z" id="Path" fill="#F1F1F1" fill-rule="nonzero"></path>
        <path d="M875.516315,299.650138 C871.440682,297.500722 867.741329,301.035228 867.167357,305.0734 C866.886706,307.047964 866.82604,309.746732 868.070645,311.424055 C869.341715,313.137008 871.786593,313.855243 873.816748,313.981861 C877.692875,314.223643 881.817002,312.038334 882.770587,308.026556 C883.701392,304.337683 881.725326,300.534064 878.192338,299.21414 C876.36264,298.573316 875.576401,301.504043 877.394077,302.140659 C879.125036,302.867961 880.172199,304.663836 879.963192,306.546665 C879.718158,308.7127 878.079017,310.450439 875.950057,310.801197 C873.471757,311.377337 870.567222,310.759021 870.088017,307.933282 C869.729524,305.819334 870.865369,300.617177 874.000748,302.270726 C875.712066,303.173253 877.232027,300.554981 875.516315,299.650158 L875.516315,299.650138 Z" id="Path" fill="#F1F1F1" fill-rule="nonzero"></path>
        <path d="M819.441417,329.988163 C841.153123,330.216133 862.842507,329.546759 884.509568,327.98004 L883.070699,326.093938 C879.524,335.067713 879.621677,344.525896 880.0918,354.018936 C880.209582,356.397353 880.956791,359.604688 880.473478,361.960438 C879.865667,364.922985 877.202373,364.214739 874.553672,364.300265 C868.719567,364.488654 862.884096,364.624025 857.047258,364.706379 C851.534977,364.784157 846.022282,364.814802 840.509173,364.798312 C837.914913,364.790193 835.320706,364.771803 832.726552,364.743142 C829.680258,364.70924 826.217559,365.592522 825.430897,362.069089 C824.927001,359.812156 825.434388,356.843599 825.43594,354.522546 L825.44162,346.032684 L825.452971,329.052949 C825.425115,328.250126 824.765276,327.613678 823.960801,327.613678 C823.156326,327.613678 822.496487,328.250126 822.468631,329.052949 L822.454704,349.80595 L822.448397,359.239131 C822.447144,361.112856 822.05729,363.376584 822.757913,365.155425 C824.369536,369.247274 831.333671,367.712107 834.672113,367.742791 C841.481805,367.805371 848.291654,367.79505 855.101658,367.711829 C861.911171,367.629501 868.719275,367.475167 875.52597,367.248826 C878.458223,367.15142 882.51594,367.81741 883.405382,364.206196 C884.02896,361.674398 883.301925,358.373342 883.168893,355.789801 C883.01706,352.841488 882.853956,349.892509 882.814334,346.939985 C882.721819,340.045426 883.398369,333.338091 885.948388,326.886102 C886.06931,326.437883 885.975126,325.959007 885.693423,325.589745 C885.411721,325.220483 884.974385,325.002631 884.509518,325 C862.853347,326.566388 841.163963,327.235762 819.441367,327.008123 C818.637374,327.035938 818,327.694817 818,328.498123 C818,329.301429 818.637374,329.960308 819.441367,329.988123 L819.441417,329.988163 Z" id="Path" fill="#F1F1F1" fill-rule="nonzero"></path>
        <path d="M825.028092,331.962655 C834.393259,335.24212 843.523918,339.143622 852.357751,343.640533 C860.283357,347.693385 870.659126,352.120565 876.113548,359.364131 C877.256685,360.882245 879.868381,359.400266 878.710267,357.862255 C873.140425,350.465393 863.551608,346.11307 855.497139,341.908895 C845.929669,336.940606 836.014366,332.657749 825.827554,329.093293 C824.000956,328.449736 823.214816,331.3238 825.028092,331.962655 L825.028092,331.962655 Z" id="Path" fill="#F1F1F1" fill-rule="nonzero"></path>
        <path d="M883.692447,326.13664 C873.751309,330.410353 865.329128,338.644444 856.445161,344.745615 C846.829011,351.349699 836.926687,357.495691 826.738189,363.183592 C825.047658,364.13264 826.562805,366.745901 828.256544,365.795048 C838.423383,360.087503 848.325707,353.94151 857.963517,347.357071 C866.845689,341.25706 875.272142,333.020711 885.210803,328.748046 C886.985496,327.985107 885.454647,325.379014 883.692458,326.13659 L883.692447,326.13664 Z" id="Path" fill="#F1F1F1" fill-rule="nonzero"></path>
        <path d="M819.441417,389.988119 C841.153123,390.216089 862.842507,389.546714 884.509568,387.979994 L883.070699,386.09389 C879.524,395.067675 879.621677,404.525869 880.0918,414.018919 C880.209582,416.39734 880.956791,419.604678 880.473478,421.960431 C879.865667,424.922982 877.202373,424.214734 874.553672,424.30026 C868.719567,424.48865 862.884096,424.624021 857.047258,424.706375 C851.534977,424.784153 846.022282,424.814798 840.509173,424.798308 C837.914913,424.790196 835.320706,424.771806 832.726552,424.743139 C829.680258,424.709236 826.217559,425.592519 825.430897,422.069082 C824.927001,419.812146 825.434388,416.843586 825.43594,414.52253 L825.44162,406.032658 L825.452971,389.052905 C825.425115,388.25008 824.765276,387.613632 823.960801,387.613632 C823.156326,387.613632 822.496487,388.25008 822.468631,389.052905 L822.454704,409.805929 L822.448397,419.239121 C822.447144,421.112848 822.05729,423.376578 822.757913,425.155422 C824.369536,429.247275 831.333671,427.712107 834.672113,427.742791 C841.481805,427.805371 848.291654,427.79505 855.101658,427.711828 C861.911171,427.629501 868.719275,427.475166 875.52597,427.248825 C878.458223,427.151419 882.51594,427.81741 883.405382,424.206241 C884.02896,421.67444 883.301925,418.373381 883.168893,415.789836 C883.01706,412.84152 882.853956,409.892538 882.814334,406.94001 C882.721819,400.045443 883.398369,393.3381 885.948388,386.886104 C886.06931,386.437884 885.975126,385.959008 885.693423,385.589746 C885.411721,385.220484 884.974385,385.002631 884.509518,385 C862.853347,386.566389 841.163963,387.235764 819.441367,387.008125 C818.637374,387.03594 818,387.694821 818,388.498127 C818,389.301434 818.637374,389.960314 819.441367,389.988129 L819.441417,389.988119 Z" id="Path" fill="#F1F1F1" fill-rule="nonzero"></path>
        <path d="M825.028092,391.962655 C834.393259,395.24212 843.523918,399.143622 852.357751,403.640533 C860.283357,407.693385 870.659126,412.120565 876.113548,419.364131 C877.256685,420.882245 879.868381,419.400266 878.710267,417.862255 C873.140425,410.465393 863.551608,406.11307 855.497139,401.908895 C845.929669,396.940606 836.014366,392.657749 825.827554,389.093293 C824.000956,388.449736 823.214816,391.3238 825.028092,391.962655 Z" id="Path" fill="#F1F1F1" fill-rule="nonzero"></path>
        <path d="M883.692447,386.13659 C873.751309,390.410308 865.329128,398.644409 856.445161,404.745588 C846.829011,411.34968 836.926687,417.49568 826.738189,423.183588 C825.047658,424.132638 826.562805,426.745902 828.256544,425.795048 C838.423383,420.087488 848.325707,413.941488 857.963517,407.357048 C866.845689,401.257028 875.272142,393.020669 885.210803,388.748049 C886.985496,387.98511 885.454647,385.379013 883.692458,386.13659 L883.692447,386.13659 Z" id="Path" fill="#F1F1F1" fill-rule="nonzero"></path>
        <path d="M772.357942,356.529496 L781.044584,364.538105 C782.038006,365.453997 784.770608,367.344903 785.387886,368.542385 C786.664156,371.018314 785.292867,370.453473 783.105941,371.311431 C777.732214,373.471318 772.780474,376.577023 768.480909,380.484173 C767.04317,381.763831 769.15166,383.880046 770.582306,382.606701 C774.503614,379.046878 779.008828,376.204135 783.895971,374.205919 C785.648357,373.50572 788.973036,373.095677 789.805642,370.987287 C790.82467,368.406818 787.579181,366.502734 786.041519,365.085087 L774.459329,354.406938 C773.049178,353.106838 770.941679,355.223753 772.357932,356.529466 L772.357942,356.529496 Z" id="Path" fill="#F1F1F1" fill-rule="nonzero"></path>
    </g>
</svg>