<?xml version="1.0" encoding="UTF-8"?>
<svg width="750px" height="750px" viewBox="0 0 750 750" version="1.1" xmlns="http://www.w3.org/2000/svg" xmlns:xlink="http://www.w3.org/1999/xlink">
    <!-- Generator: Sketch 57.1 (83088) - https://sketch.com -->
    <title>Artboard Copy 24</title>
    <desc>Created with Sketch.</desc>
    <g id="Artboard-Copy-24" stroke="none" stroke-width="1" fill="none" fill-rule="evenodd">
        <rect fill="#FF7C6C" x="0" y="0" width="750" height="750"></rect>
        <path d="M285.722656,388.945312 L285.722656,400.546875 L244,400.546875 L244,338.542969 L285.722656,338.542969 L285.722656,350.144531 L258.222656,350.144531 L258.222656,363.9375 L284.132812,363.9375 L284.132812,374.636719 L258.222656,374.636719 L258.222656,388.945312 L285.722656,388.945312 Z M315.757812,385.078125 L315.242188,385.078125 L306.992188,400.546875 L292.640625,400.546875 L307.078125,377.257812 L292.640625,353.582031 L308.238281,353.582031 L315.929688,368.921875 L316.488281,368.921875 L324.179688,353.582031 L339.089844,353.582031 L324.609375,376.828125 L339.089844,400.546875 L324.09375,400.546875 L315.757812,385.078125 Z M374.109375,352.851562 C385.96875,352.851562 393.144531,361.832031 393.144531,377.085938 C393.144531,392.253906 386.097656,401.277344 374.324219,401.277344 C367.535156,401.277344 362.378906,398.140625 360.058594,392.984375 L359.542969,392.984375 L359.542969,415.929688 L345.835938,415.929688 L345.835938,353.582031 L359.285156,353.582031 L359.285156,361.574219 L359.800781,361.574219 C362.25,356.160156 367.492188,352.851562 374.109375,352.851562 Z M369.253906,390.363281 C375.355469,390.363281 379.09375,385.292969 379.09375,377.085938 C379.09375,368.878906 375.355469,363.765625 369.253906,363.765625 C363.28125,363.765625 359.457031,368.921875 359.414062,377.085938 C359.457031,385.292969 363.238281,390.363281 369.253906,390.363281 Z M401.308594,400.546875 L401.308594,353.582031 L415.015625,353.582031 L415.015625,400.546875 L401.308594,400.546875 Z M408.140625,347.222656 C404.144531,347.222656 400.921875,344.042969 400.921875,340.132812 C400.921875,336.179688 404.144531,333 408.140625,333 C412.136719,333 415.359375,336.179688 415.359375,340.132812 C415.359375,344.042969 412.136719,347.222656 408.140625,347.222656 Z M425.15625,400.546875 L425.15625,353.582031 L438.433594,353.582031 L438.433594,361.703125 L438.992188,361.703125 C440.410156,356.289062 444.707031,352.851562 450.464844,352.851562 C452.140625,352.851562 453.859375,353.066406 454.890625,353.453125 L454.890625,365.3125 C453.773438,364.882812 451.453125,364.539062 449.433594,364.539062 C442.902344,364.539062 438.863281,368.363281 438.863281,374.9375 L438.863281,400.546875 L425.15625,400.546875 Z M467.78125,417.777344 C467.394531,417.777344 463.011719,417.734375 462.667969,417.648438 L462.667969,407.164062 C462.96875,407.207031 465.289062,407.25 465.632812,407.25 C470.359375,407.25 472.894531,405.832031 473.625,402.523438 C473.625,402.394531 473.96875,400.847656 473.925781,400.71875 L457.726562,353.582031 L472.851562,353.582031 L482.132812,389.289062 L482.648438,389.289062 L491.886719,353.582031 L506.367188,353.582031 L490.683594,401.0625 C486.6875,413.308594 480.414062,417.777344 467.78125,417.777344 Z" id="Expiry" fill="#FFFFFF" fill-rule="nonzero"></path>
    </g>
</svg>