<?xml version="1.0" encoding="UTF-8"?>
<svg width="750px" height="545px" viewBox="0 0 750 545" version="1.1" xmlns="http://www.w3.org/2000/svg" xmlns:xlink="http://www.w3.org/1999/xlink">
    <!-- Generator: Sketch 57.1 (83088) - https://sketch.com -->
    <title>Artboard Copy 23</title>
    <desc>Created with Sketch.</desc>
    <g id="Artboard-Copy-23" stroke="none" stroke-width="1" fill="none" fill-rule="evenodd">
        <rect fill="#FF7C6C" x="0" y="0" width="750" height="545"></rect>
        <path d="M287.910156,292.398438 L287.910156,304 L246.1875,304 L246.1875,241.996094 L287.910156,241.996094 L287.910156,253.597656 L260.410156,253.597656 L260.410156,267.390625 L286.320312,267.390625 L286.320312,278.089844 L260.410156,278.089844 L260.410156,292.398438 L287.910156,292.398438 Z M317.945312,288.53125 L317.429688,288.53125 L309.179688,304 L294.828125,304 L309.265625,280.710938 L294.828125,257.035156 L310.425781,257.035156 L318.117188,272.375 L318.675781,272.375 L326.367188,257.035156 L341.277344,257.035156 L326.796875,280.28125 L341.277344,304 L326.28125,304 L317.945312,288.53125 Z M376.296875,256.304688 C388.15625,256.304688 395.332031,265.285156 395.332031,280.539062 C395.332031,295.707031 388.285156,304.730469 376.511719,304.730469 C369.722656,304.730469 364.566406,301.59375 362.246094,296.4375 L361.730469,296.4375 L361.730469,319.382812 L348.023438,319.382812 L348.023438,257.035156 L361.472656,257.035156 L361.472656,265.027344 L361.988281,265.027344 C364.4375,259.613281 369.679688,256.304688 376.296875,256.304688 Z M371.441406,293.816406 C377.542969,293.816406 381.28125,288.746094 381.28125,280.539062 C381.28125,272.332031 377.542969,267.21875 371.441406,267.21875 C365.46875,267.21875 361.644531,272.375 361.601562,280.539062 C361.644531,288.746094 365.425781,293.816406 371.441406,293.816406 Z M403.496094,304 L403.496094,257.035156 L417.203125,257.035156 L417.203125,304 L403.496094,304 Z M410.328125,250.675781 C406.332031,250.675781 403.109375,247.496094 403.109375,243.585938 C403.109375,239.632812 406.332031,236.453125 410.328125,236.453125 C414.324219,236.453125 417.546875,239.632812 417.546875,243.585938 C417.546875,247.496094 414.324219,250.675781 410.328125,250.675781 Z M427.34375,304 L427.34375,257.035156 L440.621094,257.035156 L440.621094,265.15625 L441.179688,265.15625 C442.597656,259.742188 446.894531,256.304688 452.652344,256.304688 C454.328125,256.304688 456.046875,256.519531 457.078125,256.90625 L457.078125,268.765625 C455.960938,268.335938 453.640625,267.992188 451.621094,267.992188 C445.089844,267.992188 441.050781,271.816406 441.050781,278.390625 L441.050781,304 L427.34375,304 Z M469.96875,321.230469 C469.582031,321.230469 465.199219,321.1875 464.855469,321.101562 L464.855469,310.617188 C465.15625,310.660156 467.476562,310.703125 467.820312,310.703125 C472.546875,310.703125 475.082031,309.285156 475.8125,305.976562 C475.8125,305.847656 476.15625,304.300781 476.113281,304.171875 L459.914062,257.035156 L475.039062,257.035156 L484.320312,292.742188 L484.835938,292.742188 L494.074219,257.035156 L508.554688,257.035156 L492.871094,304.515625 C488.875,316.761719 482.601562,321.230469 469.96875,321.230469 Z" id="Expiry" fill="#FFFFFF" fill-rule="nonzero"></path>
    </g>
</svg>