<?xml version="1.0" encoding="UTF-8"?>
<svg width="750px" height="545px" viewBox="0 0 750 545" version="1.1" xmlns="http://www.w3.org/2000/svg" xmlns:xlink="http://www.w3.org/1999/xlink">
    <!-- Generator: Sketch 57.1 (83088) - https://sketch.com -->
    <title>Artboard Copy 24</title>
    <desc>Created with Sketch.</desc>
    <g id="Artboard-Copy-24" stroke="none" stroke-width="1" fill="none" fill-rule="evenodd">
        <rect id="Rectangle-Copy" fill="#24EFE0" x="0" y="0" width="750" height="545"></rect>
        <g id="Group-2" transform="translate(285.000000, 246.000000)" fill="#FFFFFF" stroke="#FFFFFF" stroke-width="1.19999993">
            <g id="Y" transform="translate(114.536048, 22.526552)">
                <g id="O-Copy-2" transform="translate(0.000000, 13.435479)">
                    <path d="M29.9921419,9.45302393 C32.2535923,12.2901958 33.5042366,15.7678517 33.5042366,19.4291514 C33.5042366,28.4969608 25.8645071,35.837964 16.4521183,35.837964 C10.2282337,35.837964 4.58979719,32.6011653 1.58726315,27.4751299 L1.20815458,26.8279019 L8.80112241,24.4086796 L9.05826427,24.7370951 C10.7923234,26.9517943 13.505356,28.2822582 16.4521183,28.2822582 C21.5592399,28.2822582 25.689899,24.3131148 25.689899,19.429172 L25.6896878,13.2720637 C22.9643318,14.9657977 19.779742,15.8858748 16.4521183,15.8858748 C7.25006878,15.8858748 -0.291656869,8.85755244 -0.590809609,0.020760205 L-0.611808716,-0.599540798 L7.19605371,-0.599530563 L7.22819707,-0.0335520487 C7.4936699,4.64087844 11.5354251,8.330169 16.4521183,8.330169 C21.3688116,8.330169 25.4105668,4.64087844 25.6760396,-0.0335520487 L25.7081801,-0.599480356 L33.5160434,-0.600182125 L33.4950669,0.0201510329 C33.377962,3.48325435 32.1395911,6.7585456 29.9921419,9.45302393 Z" id="Combined-Shape"></path>
                </g>
                <path d="M33.5042366,-0.599999964 L33.5042366,33.9875686 L25.689899,33.9875686 L25.689899,-0.599999964 L33.5042366,-0.599999964 Z M7.21433761,-0.599999964 L7.21433761,14.0354794 L-0.599999964,14.0354794 L-0.599999964,-0.599999964 L7.21433761,-0.599999964 Z" id="Combined-Shape"></path>
            </g>
            <g id="P">
                <rect id="Rectangle" x="-0.599999964" y="-0.599999964" width="7.89806337" height="51.8042907"></rect>
                <g id="Group" transform="translate(0.083726, 0.000000)">
                    <path d="M16.4521183,-0.599999964 C25.8645071,-0.599999964 33.5042366,6.74100322 33.5042366,15.8088126 C33.5042366,24.876622 25.8645071,32.2176252 16.4521183,32.2176252 C7.0397296,32.2176252 -0.599999964,24.876622 -0.599999964,15.8088126 C-0.599999964,6.74100322 7.0397296,-0.599999964 16.4521183,-0.599999964 Z M16.4521183,6.9557058 C11.3449968,6.9557058 7.21433761,10.9248492 7.21433761,15.8088126 C7.21433761,20.6927761 11.3449968,24.6619194 16.4521183,24.6619194 C21.5592399,24.6619194 25.689899,20.6927761 25.689899,15.8088126 C25.689899,10.9248492 21.5592399,6.9557058 16.4521183,6.9557058 Z" id="Combined-Shape"></path>
                </g>
            </g>
            <g id="B" transform="translate(73.985134, 0.000000)">
                <rect id="Rectangle" x="-0.599999964" y="-0.599999964" width="7.89806337" height="51.8042907"></rect>
                <g id="Group" transform="translate(0.083726, 18.986666)">
                    <path d="M16.4521183,-0.599999964 C25.8645071,-0.599999964 33.5042366,6.74100322 33.5042366,15.8088126 C33.5042366,24.876622 25.8645071,32.2176252 16.4521183,32.2176252 C7.0397296,32.2176252 -0.599999964,24.876622 -0.599999964,15.8088126 C-0.599999964,6.74100322 7.0397296,-0.599999964 16.4521183,-0.599999964 Z M16.4521183,6.9557058 C11.3449968,6.9557058 7.21433761,10.9248492 7.21433761,15.8088126 C7.21433761,20.6927761 11.3449968,24.6619194 16.4521183,24.6619194 C21.5592399,24.6619194 25.689899,20.6927761 25.689899,15.8088126 C25.689899,10.9248492 21.5592399,6.9557058 16.4521183,6.9557058 Z" id="Combined-Shape"></path>
                </g>
            </g>
            <g id="O" transform="translate(33.601673, 20.032541)">
                <path d="M16.4521183,-0.599999964 C25.8645071,-0.599999964 33.5042366,6.74100322 33.5042366,15.8088126 C33.5042366,24.876622 25.8645071,32.2176252 16.4521183,32.2176252 C7.0397296,32.2176252 -0.599999964,24.876622 -0.599999964,15.8088126 C-0.599999964,6.74100322 7.0397296,-0.599999964 16.4521183,-0.599999964 Z M16.4521183,6.9557058 C11.3449968,6.9557058 7.21433761,10.9248492 7.21433761,15.8088126 C7.21433761,20.6927761 11.3449968,24.6619194 16.4521183,24.6619194 C21.5592399,24.6619194 25.689899,20.6927761 25.689899,15.8088126 C25.689899,10.9248492 21.5592399,6.9557058 16.4521183,6.9557058 Z" id="Combined-Shape"></path>
            </g>
            <g id="T" transform="translate(156.138138, 0.000000)">
                <path d="M7.29773107,35.0029188 L7.33709417,35.518038 C7.70836617,40.3766328 11.5221852,44.1773347 16.161322,44.3110985 L16.425135,44.3149578 C17.4685018,44.3149578 18.4871609,44.1311286 19.4503893,43.7754588 L19.8526097,43.6269399 L24.7708341,49.6644257 L24.138065,50.0105657 C21.7503214,51.3167189 19.0896683,52.0088105 16.334851,52.0088105 C7.66000347,52.0088105 0.458356386,45.1369903 -0.425356098,36.235607 L-0.516274171,36.234778 L-0.516274171,-0.599999964 L7.2980691,-0.599999964 L7.29773107,35.0029188 Z" id="Combined-Shape"></path>
                <path d="M7.94375814,9.92335944 L15.4994639,9.92335944 L15.4994639,34.5665814 L7.94375814,34.5665814 L7.94375814,9.92335944 Z" id="Rectangle-Copy-5" transform="translate(11.721611, 22.244970) rotate(90.000000) translate(-11.721611, -22.244970) "></path>
            </g>
        </g>
    </g>
</svg>