<?xml version="1.0" encoding="UTF-8"?>
<svg width="750px" height="545px" viewBox="0 0 750 545" version="1.1" xmlns="http://www.w3.org/2000/svg" xmlns:xlink="http://www.w3.org/1999/xlink">
    <!-- Generator: Sketch 56.3 (81716) - https://sketch.com -->
    <title>Artboard Copy 20</title>
    <desc>Created with Sketch.</desc>
    <g id="Artboard-Copy-20" stroke="none" stroke-width="1" fill="none" fill-rule="evenodd">
        <rect fill="#FFB600" x="0" y="0" width="750" height="545"></rect>
        <path d="M265.317,393.21 C264.784997,393.21 264.337002,393.028002 263.973,392.664 C263.608998,392.299998 263.427,391.852003 263.427,391.32 L263.427,365.616 C263.427,365.083997 263.608998,364.629002 263.973,364.251 C264.337002,363.872998 264.784997,363.684 265.317,363.684 L281.655,363.684 C282.159003,363.684 282.585998,363.858998 282.936,364.209 C283.286002,364.559002 283.461,364.985997 283.461,365.49 C283.461,365.994003 283.286002,366.413998 282.936,366.75 C282.585998,367.086002 282.159003,367.254 281.655,367.254 L267.249,367.254 L267.249,376.536 L280.185,376.536 C280.689003,376.536 281.115998,376.710998 281.466,377.061 C281.816002,377.411002 281.991,377.837997 281.991,378.342 C281.991,378.846003 281.816002,379.265998 281.466,379.602 C281.115998,379.938002 280.689003,380.106 280.185,380.106 L267.249,380.106 L267.249,391.32 C267.249,391.852003 267.060002,392.299998 266.682,392.664 C266.303998,393.028002 265.849003,393.21 265.317,393.21 Z M293.667,393.42 C292.434994,393.42 291.294005,393.168003 290.244,392.664 C289.193995,392.16 288.361003,391.425005 287.745,390.459 C287.128997,389.492995 286.821,388.380006 286.821,387.12 C286.821,385.04799 287.639992,383.396006 289.278,382.164 C290.916008,380.931994 293.316984,380.316 296.481,380.316 L301.563,380.316 L301.563,379.98 C301.563,378.131991 301.108005,376.802004 300.198,375.99 C299.287995,375.177996 297.86701,374.772 295.935,374.772 C294.870995,374.772 293.926004,374.855999 293.1,375.024 C292.273996,375.192001 291.357005,375.443998 290.349,375.78 C290.124999,375.836 289.943001,375.864 289.803,375.864 C289.382998,375.864 289.019002,375.710002 288.711,375.402 C288.402998,375.093998 288.249,374.716002 288.249,374.268 C288.249,373.511996 288.612996,372.980002 289.341,372.672 C291.721012,371.663995 294.142988,371.16 296.607,371.16 C298.53901,371.16 300.169993,371.551996 301.5,372.336 C302.830007,373.120004 303.809997,374.134994 304.44,375.381 C305.070003,376.627006 305.385,377.977993 305.385,379.434 L305.385,391.32 C305.385,391.852003 305.196002,392.299998 304.818,392.664 C304.439998,393.028002 303.985003,393.21 303.453,393.21 C302.920997,393.21 302.473002,393.028002 302.109,392.664 C301.744998,392.299998 301.563,391.852003 301.563,391.32 L301.563,390.228 C299.49099,392.356011 296.859016,393.42 293.667,393.42 Z M295.095,390.06 C296.327006,390.06 297.516994,389.759003 298.665,389.157 C299.813006,388.554997 300.778996,387.806004 301.563,386.91 L301.563,383.382 L296.985,383.382 C292.756979,383.382 290.643,384.487989 290.643,386.7 C290.643,387.708005 290.985997,388.519997 291.672,389.136 C292.358003,389.752003 293.498992,390.06 295.095,390.06 Z M313.701,393.21 C313.168997,393.21 312.721002,393.028002 312.357,392.664 C311.992998,392.299998 311.811,391.852003 311.811,391.32 L311.811,373.302 C311.811,372.769997 311.992998,372.315002 312.357,371.937 C312.721002,371.558998 313.168997,371.37 313.701,371.37 C314.233003,371.37 314.687998,371.558998 315.066,371.937 C315.444002,372.315002 315.633,372.769997 315.633,373.302 L315.633,375.024 C316.417004,373.903994 317.361994,372.980004 318.468,372.252 C319.574006,371.523996 321.008991,371.16 322.773,371.16 C324.341008,371.16 325.684994,371.579996 326.805,372.42 C327.925006,373.260004 328.722998,374.281994 329.199,375.486 C330.935009,372.601986 333.510983,371.16 336.927,371.16 C338.495008,371.16 339.803995,371.551996 340.854,372.336 C341.904005,373.120004 342.680997,374.127994 343.185,375.36 C343.689003,376.592006 343.941,377.879993 343.941,379.224 L343.941,391.32 C343.941,391.852003 343.752002,392.299998 343.374,392.664 C342.995998,393.028002 342.541003,393.21 342.009,393.21 C341.476997,393.21 341.029002,393.028002 340.665,392.664 C340.300998,392.299998 340.119,391.852003 340.119,391.32 L340.119,379.98 C340.119,378.16 339.797003,376.823004 339.153,375.969 C338.508997,375.114996 337.403008,374.688 335.835,374.688 C334.406993,374.688 333.224005,375.058996 332.286,375.801 C331.347995,376.543004 330.515004,377.515994 329.787,378.72 L329.787,391.32 C329.787,391.852003 329.598002,392.299998 329.22,392.664 C328.841998,393.028002 328.387003,393.21 327.855,393.21 C327.322997,393.21 326.875002,393.028002 326.511,392.664 C326.146998,392.299998 325.965,391.852003 325.965,391.32 L325.965,379.98 C325.965,378.16 325.643003,376.823004 324.999,375.969 C324.354997,375.114996 323.249008,374.688 321.681,374.688 C320.252993,374.688 319.070005,375.058996 318.132,375.801 C317.193995,376.543004 316.361004,377.515994 315.633,378.72 L315.633,391.32 C315.633,391.852003 315.444002,392.299998 315.066,392.664 C314.687998,393.028002 314.233003,393.21 313.701,393.21 Z M352.173,367.212 C351.584997,367.212 351.081002,367.002002 350.661,366.582 C350.240998,366.161998 350.031,365.658003 350.031,365.07 L350.031,364.902 C350.031,364.313997 350.240998,363.810002 350.661,363.39 C351.081002,362.969998 351.584997,362.76 352.173,362.76 L352.425,362.76 C353.013003,362.76 353.516998,362.969998 353.937,363.39 C354.357002,363.810002 354.567,364.313997 354.567,364.902 L354.567,365.07 C354.567,365.658003 354.357002,366.161998 353.937,366.582 C353.516998,367.002002 353.013003,367.212 352.425,367.212 L352.173,367.212 Z M352.257,393.21 C351.724997,393.21 351.277002,393.028002 350.913,392.664 C350.548998,392.299998 350.367,391.852003 350.367,391.32 L350.367,373.302 C350.367,372.769997 350.548998,372.315002 350.913,371.937 C351.277002,371.558998 351.724997,371.37 352.257,371.37 C352.817003,371.37 353.278998,371.551998 353.643,371.916 C354.007002,372.280002 354.189,372.741997 354.189,373.302 L354.189,391.32 C354.189,391.852003 354.000002,392.299998 353.622,392.664 C353.243998,393.028002 352.789003,393.21 352.257,393.21 Z M362.715,393.21 C362.182997,393.21 361.735002,393.028002 361.371,392.664 C361.006998,392.299998 360.825,391.852003 360.825,391.32 L360.825,364.062 C360.825,363.529997 361.006998,363.075002 361.371,362.697 C361.735002,362.318998 362.182997,362.13 362.715,362.13 C363.275003,362.13 363.736998,362.311998 364.101,362.676 C364.465002,363.040002 364.647,363.501997 364.647,364.062 L364.647,391.32 C364.647,391.852003 364.458002,392.299998 364.08,392.664 C363.701998,393.028002 363.247003,393.21 362.715,393.21 Z M376.071,402.87 C375.566997,402.87 375.140002,402.688002 374.79,402.324 C374.439998,401.959998 374.265,401.526003 374.265,401.022 C374.265,400.797999 374.307,400.574001 374.391,400.35 L377.121,393.336 L369.225,374.1 C369.112999,373.819999 369.057,373.554001 369.057,373.302 C369.057,372.769997 369.238998,372.315002 369.603,371.937 C369.967002,371.558998 370.414997,371.37 370.947,371.37 C371.339002,371.37 371.695998,371.481999 372.018,371.706 C372.340002,371.930001 372.570999,372.209998 372.711,372.546 L379.179,388.59 L385.773,372.63 C386.137002,371.789996 386.724996,371.37 387.537,371.37 C388.069003,371.37 388.516998,371.558998 388.881,371.937 C389.245002,372.315002 389.427,372.769997 389.427,373.302 C389.427,373.554001 389.385,373.791999 389.301,374.016 L377.835,401.568 C377.442998,402.436004 376.855004,402.87 376.071,402.87 Z M414.207,393.21 C413.674997,393.21 413.227002,393.028002 412.863,392.664 C412.498998,392.299998 412.317,391.852003 412.317,391.32 L412.317,367.254 L403.749,367.254 C403.244997,367.254 402.825002,367.086002 402.489,366.75 C402.152998,366.413998 401.985,365.994003 401.985,365.49 C401.985,364.985997 402.152998,364.559002 402.489,364.209 C402.825002,363.858998 403.244997,363.684 403.749,363.684 L424.665,363.684 C425.169003,363.684 425.595998,363.858998 425.946,364.209 C426.296002,364.559002 426.471,364.985997 426.471,365.49 C426.471,365.994003 426.296002,366.413998 425.946,366.75 C425.595998,367.086002 425.169003,367.254 424.665,367.254 L416.139,367.254 L416.139,391.32 C416.139,391.852003 415.950002,392.299998 415.572,392.664 C415.193998,393.028002 414.739003,393.21 414.207,393.21 Z M432.225,393.21 C431.692997,393.21 431.245002,393.028002 430.881,392.664 C430.516998,392.299998 430.335,391.852003 430.335,391.32 L430.335,373.302 C430.335,372.769997 430.516998,372.315002 430.881,371.937 C431.245002,371.558998 431.692997,371.37 432.225,371.37 C432.757003,371.37 433.211998,371.558998 433.59,371.937 C433.968002,372.315002 434.157,372.769997 434.157,373.302 L434.157,375.108 C436.11701,372.475987 438.314988,371.16 440.751,371.16 L440.961,371.16 C441.493003,371.16 441.933998,371.341998 442.284,371.706 C442.634002,372.070002 442.809,372.517997 442.809,373.05 C442.809,373.582003 442.627002,374.015998 442.263,374.352 C441.898998,374.688002 441.437003,374.856 440.877,374.856 L440.667,374.856 C439.322993,374.856 438.091006,375.184997 436.971,375.843 C435.850994,376.501003 434.913004,377.403994 434.157,378.552 L434.157,391.32 C434.157,391.852003 433.968002,392.299998 433.59,392.664 C433.211998,393.028002 432.757003,393.21 432.225,393.21 Z M455.997,393.42 C452.580983,393.42 449.91401,392.44701 447.996,390.501 C446.07799,388.55499 445.119,385.818018 445.119,382.29 C445.119,380.30199 445.482996,378.468008 446.211,376.788 C446.939004,375.107992 448.058992,373.750005 449.571,372.714 C451.083008,371.677995 452.944989,371.16 455.157,371.16 C457.22901,371.16 459.020992,371.642995 460.533,372.609 C462.045008,373.575005 463.192996,374.862992 463.977,376.473 C464.761004,378.083008 465.153,379.83999 465.153,381.744 C465.153,382.276003 464.978002,382.723998 464.628,383.088 C464.277998,383.452002 463.809003,383.634 463.221,383.634 L448.983,383.634 C449.207001,385.59401 449.934994,387.119995 451.167,388.212 C452.399006,389.304005 454.120989,389.85 456.333,389.85 C457.509006,389.85 458.537996,389.738001 459.42,389.514 C460.302004,389.289999 461.162996,388.968002 462.003,388.548 C462.227001,388.435999 462.478999,388.38 462.759,388.38 C463.207002,388.38 463.598998,388.533998 463.935,388.842 C464.271002,389.150002 464.439,389.541998 464.439,390.018 C464.439,390.634003 464.075004,391.151998 463.347,391.572 C462.254995,392.188003 461.177005,392.649998 460.113,392.958 C459.048995,393.266002 457.677008,393.42 455.997,393.42 Z M461.373,380.526 C461.289,379.153993 460.932003,378.006005 460.302,377.082 C459.671997,376.157995 458.895005,375.479002 457.971,375.045 C457.046995,374.610998 456.109005,374.394 455.157,374.394 C454.204995,374.394 453.267005,374.610998 452.343,375.045 C451.418995,375.479002 450.649003,376.157995 450.033,377.082 C449.416997,378.006005 449.067,379.153993 448.983,380.526 L461.373,380.526 Z M479.769,393.42 C476.352983,393.42 473.68601,392.44701 471.768,390.501 C469.84999,388.55499 468.891,385.818018 468.891,382.29 C468.891,380.30199 469.254996,378.468008 469.983,376.788 C470.711004,375.107992 471.830992,373.750005 473.343,372.714 C474.855008,371.677995 476.716989,371.16 478.929,371.16 C481.00101,371.16 482.792992,371.642995 484.305,372.609 C485.817008,373.575005 486.964996,374.862992 487.749,376.473 C488.533004,378.083008 488.925,379.83999 488.925,381.744 C488.925,382.276003 488.750002,382.723998 488.4,383.088 C488.049998,383.452002 487.581003,383.634 486.993,383.634 L472.755,383.634 C472.979001,385.59401 473.706994,387.119995 474.939,388.212 C476.171006,389.304005 477.892989,389.85 480.105,389.85 C481.281006,389.85 482.309996,389.738001 483.192,389.514 C484.074004,389.289999 484.934996,388.968002 485.775,388.548 C485.999001,388.435999 486.250999,388.38 486.531,388.38 C486.979002,388.38 487.370998,388.533998 487.707,388.842 C488.043002,389.150002 488.211,389.541998 488.211,390.018 C488.211,390.634003 487.847004,391.151998 487.119,391.572 C486.026995,392.188003 484.949005,392.649998 483.885,392.958 C482.820995,393.266002 481.449008,393.42 479.769,393.42 Z M485.145,380.526 C485.061,379.153993 484.704003,378.006005 484.074,377.082 C483.443997,376.157995 482.667005,375.479002 481.743,375.045 C480.818995,374.610998 479.881005,374.394 478.929,374.394 C477.976995,374.394 477.039005,374.610998 476.115,375.045 C475.190995,375.479002 474.421003,376.157995 473.805,377.082 C473.188997,378.006005 472.839,379.153993 472.755,380.526 L485.145,380.526 Z" id="FamilyTree" fill="#070707" fill-rule="nonzero"></path>
        <g id="Group" transform="translate(304.000000, 214.000000)">
            <circle id="Oval" fill="#FFFFFF" cx="25" cy="25" r="25"></circle>
            <path d="M35.5277837,7.80050857 L32.5,18.28296 L43.4056051,14.2977717 C44.1530853,15.8657966 44.5714286,17.6204756 44.5714286,19.4727273 C44.5714286,26.1302689 39.1668659,31.5272727 32.5,31.5272727 C25.8331341,31.5272727 20.4285714,26.1302689 20.4285714,19.4727273 C20.4285714,12.8151857 25.8331341,7.41818182 32.5,7.41818182 C33.5456401,7.41818182 34.5602285,7.5509438 35.5277837,7.80050857 Z" id="Combined-Shape" fill="#000000" transform="translate(32.500000, 19.472727) rotate(50.000000) translate(-32.500000, -19.472727) "></path>
            <circle id="Oval-Copy" fill="#FFFFFF" cx="118" cy="25" r="25"></circle>
            <path d="M124.670641,7.80050857 L121.642857,18.28296 L132.548462,14.2977717 C133.295942,15.8657966 133.714286,17.6204756 133.714286,19.4727273 C133.714286,26.1302689 128.309723,31.5272727 121.642857,31.5272727 C114.975991,31.5272727 109.571429,26.1302689 109.571429,19.4727273 C109.571429,12.8151857 114.975991,7.41818182 121.642857,7.41818182 C122.688497,7.41818182 123.703086,7.5509438 124.670641,7.80050857 Z" id="Combined-Shape-Copy" fill="#000000" transform="translate(121.642857, 19.472727) rotate(170.000000) translate(-121.642857, -19.472727) "></path>
            <path d="M46,89 C55.3478261,103.290765 69.6811594,105.799263 89,96.5254929" id="Path-12" stroke="#000000" stroke-width="3" stroke-linecap="round" stroke-linejoin="round"></path>
        </g>
    </g>
</svg>