<?xml version="1.0" encoding="UTF-8"?>
<svg width="750px" height="545px" viewBox="0 0 750 545" version="1.1" xmlns="http://www.w3.org/2000/svg" xmlns:xlink="http://www.w3.org/1999/xlink">
    <!-- Generator: Sketch 55.1 (78136) - https://sketchapp.com -->
    <title>Artboard Copy 13</title>
    <desc>Created with Sketch.</desc>
    <g id="Artboard-Copy-13" stroke="none" stroke-width="1" fill="none" fill-rule="evenodd">
        <rect id="Rectangle-Copy" fill="#24EFE0" x="0" y="0" width="750" height="545"></rect>
        <g id="Group-2" transform="translate(258.000000, 237.000000)" fill="#FFFFFF" stroke="#FFFFFF" stroke-width="3">
            <g id="Y" transform="translate(151.170068, 28.158192)">
                <g id="O-Copy-2" transform="translate(0.000000, 16.794350)">
                    <path d="M38.4387526,11.8163679 C41.1413764,15.4059934 42.6302983,19.7370307 42.6302983,24.2864407 C42.6302983,36.0422572 32.7383041,45.5474576 20.5651491,45.5474576 C12.5185797,45.5474576 5.22412532,41.3598528 1.33657399,34.7223819 L0.388754112,33.104107 L11.2708992,29.6385585 L11.9136661,30.4594029 C13.9395583,33.0465656 17.1132158,34.6028249 20.5651491,34.6028249 C26.5242468,34.6028249 31.3377007,29.9956979 31.3622666,24.3367476 L31.3623108,17.8925963 C28.1042064,19.6575148 24.4075931,20.6073446 20.5651491,20.6073446 C8.66395493,20.6073446 -1.10060618,11.5072606 -1.48810363,0.0507058188 L-1.54055348,-1.5 L9.70372104,-1.5 L9.78401136,-0.0849752387 C10.0927093,5.3554721 14.8112322,9.66271186 20.5651491,9.66271186 C26.3190661,9.66271186 31.037589,5.3554721 31.3462869,-0.0849752387 L31.4265772,-1.5 L42.6708518,-1.5 L42.6184019,0.0507058188 C42.4731768,4.34435768 40.9991882,8.41539216 38.4387526,11.8163679 Z" id="Combined-Shape"></path>
                </g>
                <path d="M42.6302983,-1.5 L42.6302983,43.2344633 L31.3623757,43.2344633 L31.3623757,-1.5 L42.6302983,-1.5 Z M-1.5,-1.5 L9.76792255,-1.5 L9.76792255,18.2943503 L-1.5,18.2943503 L-1.5,-1.5 Z" id="Combined-Shape"></path>
            </g>
            <g id="P">
                <rect id="Rectangle" x="-1.5" y="-1.5" width="11.3725798" height="66.2553672"></rect>
                <g id="Group" transform="translate(0.104657, 0.000000)">
                    <path d="M20.5651491,41.0220339 C8.39199415,41.0220339 -1.5,31.5168335 -1.5,19.7610169 C-1.5,8.00520042 8.39199415,-1.5 20.5651491,-1.5 C32.7383041,-1.5 42.6302983,8.00520042 42.6302983,19.7610169 C42.6302983,31.5168335 32.7383041,41.0220339 20.5651491,41.0220339 Z M20.5651491,30.0774011 C26.5413831,30.0774011 31.3623757,25.4449175 31.3623757,19.7610169 C31.3623757,14.0771164 26.5413831,9.44463277 20.5651491,9.44463277 C14.5889152,9.44463277 9.76792255,14.0771164 9.76792255,19.7610169 C9.76792255,25.4449175 14.5889152,30.0774011 20.5651491,30.0774011 Z" id="Combined-Shape"></path>
                </g>
            </g>
            <g id="B" transform="translate(98.481423, 0.000000)">
                <rect id="Rectangle" x="-1.5" y="-1.5" width="11.3725798" height="66.2553672"></rect>
                <g id="Group" transform="translate(0.104657, 23.733333)">
                    <path d="M20.5651491,41.0220339 C8.39199415,41.0220339 -1.5,31.5168335 -1.5,19.7610169 C-1.5,8.00520042 8.39199415,-1.5 20.5651491,-1.5 C32.7383041,-1.5 42.6302983,8.00520042 42.6302983,19.7610169 C42.6302983,31.5168335 32.7383041,41.0220339 20.5651491,41.0220339 Z M20.5651491,30.0774011 C26.5413831,30.0774011 31.3623757,25.4449175 31.3623757,19.7610169 C31.3623757,14.0771164 26.5413831,9.44463277 20.5651491,9.44463277 C14.5889152,9.44463277 9.76792255,14.0771164 9.76792255,19.7610169 C9.76792255,25.4449175 14.5889152,30.0774011 20.5651491,30.0774011 Z" id="Combined-Shape"></path>
                </g>
            </g>
            <g id="O" transform="translate(46.002093, 25.040678)">
                <path d="M20.5651491,41.0220339 C8.39199415,41.0220339 -1.5,31.5168335 -1.5,19.7610169 C-1.5,8.00520042 8.39199415,-1.5 20.5651491,-1.5 C32.7383041,-1.5 42.6302983,8.00520042 42.6302983,19.7610169 C42.6302983,31.5168335 32.7383041,41.0220339 20.5651491,41.0220339 Z M20.5651491,30.0774011 C26.5413831,30.0774011 31.3623757,25.4449175 31.3623757,19.7610169 C31.3623757,14.0771164 26.5413831,9.44463277 20.5651491,9.44463277 C14.5889152,9.44463277 9.76792255,14.0771164 9.76792255,19.7610169 C9.76792255,25.4449175 14.5889152,30.0774011 20.5651491,30.0774011 Z" id="Combined-Shape"></path>
            </g>
            <g id="T" transform="translate(204.172684, 0.000000)">
                <path d="M9.8725798,43.7305152 L9.91919278,44.340467 C10.3633808,50.1528663 14.9882674,54.6437005 20.53142,54.6437005 C21.7465564,54.6437005 22.9319747,54.4297741 24.0532509,54.0157384 L25.0589104,53.6443946 L32.1136531,62.3063579 L30.5317933,63.1715942 C27.4378684,64.8638909 23.9887032,65.7610169 20.4185649,65.7610169 C9.40382408,65.7610169 0.23440962,57.2201093 -1.20043222,46.0502825 L-1.39534275,46.0502825 L-1.39534275,-1.5 L9.8725798,-1.5 L9.8725798,43.7305152 Z" id="Combined-Shape"></path>
                <path d="M9.17969827,11.6542 L20.124331,11.6542 L20.124331,43.9582293 L9.17969827,43.9582293 L9.17969827,11.6542 Z" id="Rectangle-Copy-5" transform="translate(14.652015, 27.806215) rotate(90.000000) translate(-14.652015, -27.806215) "></path>
            </g>
        </g>
    </g>
</svg>