<svg width="133" height="43" viewBox="0 0 133 43" fill="none" xmlns="http://www.w3.org/2000/svg">
<path d="M13.2471 26.6387C13.2471 28.0566 12.735 29.1738 11.7109 29.9902C10.694 30.8066 9.27604 31.2148 7.45703 31.2148C5.78125 31.2148 4.29883 30.8997 3.00977 30.2695V27.1758C4.06966 27.6484 4.96484 27.9814 5.69531 28.1748C6.43294 28.3682 7.10612 28.4648 7.71484 28.4648C8.44531 28.4648 9.00391 28.3252 9.39062 28.0459C9.78451 27.7666 9.98145 27.3512 9.98145 26.7998C9.98145 26.4919 9.89551 26.2197 9.72363 25.9834C9.55176 25.7399 9.29753 25.5072 8.96094 25.2852C8.63151 25.0632 7.95475 24.7087 6.93066 24.2217C5.97103 23.7705 5.2513 23.3372 4.77148 22.9219C4.29167 22.5065 3.90853 22.0231 3.62207 21.4717C3.33561 20.9202 3.19238 20.2757 3.19238 19.5381C3.19238 18.1488 3.66146 17.0566 4.59961 16.2617C5.54492 15.4668 6.84831 15.0693 8.50977 15.0693C9.32617 15.0693 10.1032 15.166 10.8408 15.3594C11.5856 15.5527 12.3626 15.8249 13.1719 16.1758L12.0977 18.7646C11.2598 18.4209 10.5651 18.181 10.0137 18.0449C9.4694 17.9089 8.93229 17.8408 8.40234 17.8408C7.77214 17.8408 7.28874 17.9876 6.95215 18.2812C6.61556 18.5749 6.44727 18.958 6.44727 19.4307C6.44727 19.7243 6.5153 19.9821 6.65137 20.2041C6.78743 20.4189 7.00228 20.6302 7.2959 20.8379C7.59668 21.0384 8.30208 21.4036 9.41211 21.9336C10.8802 22.6354 11.8864 23.3408 12.4307 24.0498C12.9749 24.7516 13.2471 25.6146 13.2471 26.6387ZM23.6829 31L23.0491 29.3672H22.9632C22.4117 30.0618 21.8424 30.5452 21.2552 30.8174C20.6751 31.0824 19.916 31.2148 18.9778 31.2148C17.8248 31.2148 16.9153 30.8854 16.2493 30.2266C15.5904 29.5677 15.261 28.6296 15.261 27.4121C15.261 26.1374 15.705 25.1992 16.593 24.5977C17.4882 23.9889 18.8346 23.6523 20.6321 23.5879L22.7161 23.5234V22.9971C22.7161 21.7796 22.093 21.1709 20.847 21.1709C19.8873 21.1709 18.7594 21.4609 17.4632 22.041L16.3782 19.8281C17.7604 19.1048 19.2929 18.7432 20.9759 18.7432C22.5872 18.7432 23.8225 19.0941 24.6819 19.7959C25.5413 20.4977 25.971 21.5648 25.971 22.9971V31H23.6829ZM22.7161 25.4355L21.4485 25.4785C20.496 25.5072 19.7871 25.679 19.3216 25.9941C18.8561 26.3092 18.6233 26.7891 18.6233 27.4336C18.6233 28.3574 19.1533 28.8193 20.2132 28.8193C20.9723 28.8193 21.5774 28.6009 22.0286 28.1641C22.4869 27.7272 22.7161 27.1471 22.7161 26.4238V25.4355ZM32.4322 31L27.856 18.9902H31.2828L33.6031 25.833C33.8609 26.6995 34.022 27.5195 34.0865 28.293H34.1509C34.1867 27.6055 34.3479 26.7855 34.6343 25.833L36.9439 18.9902H40.3707L35.7945 31H32.4322ZM42.1805 15.8857C42.1805 14.8187 42.7749 14.2852 43.9637 14.2852C45.1525 14.2852 45.7469 14.8187 45.7469 15.8857C45.7469 16.3942 45.5965 16.7917 45.2957 17.0781C45.0021 17.3574 44.5581 17.4971 43.9637 17.4971C42.7749 17.4971 42.1805 16.96 42.1805 15.8857ZM45.5965 31H42.3202V18.9902H45.5965V31ZM60.3507 31H57.0743V23.9854C57.0743 23.1188 56.9204 22.4707 56.6124 22.041C56.3045 21.6042 55.8139 21.3857 55.1407 21.3857C54.2241 21.3857 53.5616 21.6937 53.1534 22.3096C52.7452 22.9183 52.5411 23.9316 52.5411 25.3496V31H49.2648V18.9902H51.7677L52.2081 20.5264H52.3907C52.756 19.9463 53.2573 19.5094 53.8946 19.2158C54.5392 18.915 55.2696 18.7646 56.0861 18.7646C57.4825 18.7646 58.5424 19.1442 59.2657 19.9033C59.9891 20.6553 60.3507 21.7438 60.3507 23.1689V31ZM74.3959 18.9902V20.6553L72.516 21.1387C72.8598 21.6758 73.0316 22.2773 73.0316 22.9434C73.0316 24.2324 72.5805 25.2386 71.6781 25.9619C70.7829 26.6781 69.5368 27.0361 67.9398 27.0361L67.349 27.0039L66.8656 26.9502C66.529 27.208 66.3607 27.4945 66.3607 27.8096C66.3607 28.2822 66.9623 28.5186 68.1654 28.5186H70.2064C71.5242 28.5186 72.5268 28.8014 73.2143 29.3672C73.9089 29.9329 74.2562 30.7637 74.2562 31.8594C74.2562 33.263 73.669 34.3516 72.4945 35.125C71.3272 35.8984 69.6479 36.2852 67.4564 36.2852C65.7807 36.2852 64.4988 35.9915 63.6107 35.4043C62.7299 34.8242 62.2895 34.0078 62.2895 32.9551C62.2895 32.2318 62.515 31.6266 62.9662 31.1396C63.4174 30.6527 64.0798 30.3053 64.9535 30.0977C64.6169 29.9544 64.3233 29.7217 64.0727 29.3994C63.822 29.07 63.6967 28.7227 63.6967 28.3574C63.6967 27.8991 63.8292 27.5195 64.0941 27.2188C64.3591 26.9108 64.7423 26.61 65.2436 26.3164C64.6133 26.0443 64.112 25.6074 63.7396 25.0059C63.3744 24.4043 63.1918 23.6953 63.1918 22.8789C63.1918 21.5684 63.6179 20.555 64.4701 19.8389C65.3223 19.1227 66.5398 18.7646 68.1225 18.7646C68.459 18.7646 68.8565 18.7969 69.3148 18.8613C69.7803 18.9186 70.0775 18.9616 70.2064 18.9902H74.3959ZM65.1254 32.6973C65.1254 33.1484 65.3402 33.5029 65.7699 33.7607C66.2068 34.0186 66.8155 34.1475 67.5961 34.1475C68.7706 34.1475 69.6908 33.9863 70.3568 33.6641C71.0229 33.3418 71.3559 32.9014 71.3559 32.3428C71.3559 31.8916 71.1589 31.5801 70.765 31.4082C70.3712 31.2363 69.7624 31.1504 68.9389 31.1504H67.2416C66.64 31.1504 66.1352 31.29 65.727 31.5693C65.3259 31.8558 65.1254 32.2318 65.1254 32.6973ZM66.3178 22.9219C66.3178 23.5736 66.4646 24.0892 66.7582 24.4688C67.059 24.8483 67.5137 25.0381 68.1225 25.0381C68.7383 25.0381 69.1895 24.8483 69.476 24.4688C69.7624 24.0892 69.9057 23.5736 69.9057 22.9219C69.9057 21.4753 69.3113 20.752 68.1225 20.752C66.9193 20.752 66.3178 21.4753 66.3178 22.9219ZM84.9821 27.4336C84.9821 28.6654 84.5524 29.6035 83.693 30.248C82.8408 30.8926 81.5625 31.2148 79.8581 31.2148C78.9844 31.2148 78.2396 31.154 77.6237 31.0322C77.0078 30.9176 76.4313 30.7458 75.8942 30.5166V27.8096C76.5029 28.096 77.1869 28.3359 77.946 28.5293C78.7123 28.7227 79.3854 28.8193 79.9655 28.8193C81.1543 28.8193 81.7487 28.4756 81.7487 27.7881C81.7487 27.5303 81.6699 27.3226 81.5124 27.165C81.3548 27.0003 81.0827 26.8177 80.696 26.6172C80.3093 26.4095 79.7936 26.1696 79.1491 25.8975C78.2253 25.5107 77.5449 25.1527 77.1081 24.8232C76.6784 24.4938 76.3633 24.1178 76.1628 23.6953C75.9694 23.2656 75.8727 22.7393 75.8727 22.1162C75.8727 21.0492 76.2845 20.2256 77.1081 19.6455C77.9388 19.0583 79.1133 18.7646 80.6315 18.7646C82.0781 18.7646 83.4854 19.0798 84.8532 19.71L83.8649 22.0732C83.2634 21.8154 82.7012 21.6042 82.1784 21.4395C81.6556 21.2747 81.1221 21.1924 80.5778 21.1924C79.611 21.1924 79.1276 21.4538 79.1276 21.9766C79.1276 22.2702 79.2816 22.5244 79.5895 22.7393C79.9046 22.9541 80.5886 23.2728 81.6413 23.6953C82.5794 24.0749 83.2669 24.4294 83.7038 24.7588C84.1406 25.0882 84.4629 25.4678 84.6706 25.8975C84.8783 26.3271 84.9821 26.8392 84.9821 27.4336ZM102.271 23.126C102.271 25.7256 101.627 27.7236 100.338 29.1201C99.0488 30.5166 97.2011 31.2148 94.7949 31.2148C92.3886 31.2148 90.541 30.5166 89.2519 29.1201C87.9629 27.7236 87.3183 25.7184 87.3183 23.1045C87.3183 20.4906 87.9629 18.4961 89.2519 17.1211C90.5481 15.7389 92.403 15.0479 94.8164 15.0479C97.2298 15.0479 99.0739 15.7425 100.349 17.1318C101.63 18.5212 102.271 20.5192 102.271 23.126ZM90.8095 23.126C90.8095 24.8805 91.1425 26.2018 91.8086 27.0898C92.4746 27.9779 93.47 28.4219 94.7949 28.4219C97.4518 28.4219 98.7802 26.6566 98.7802 23.126C98.7802 19.5882 97.4589 17.8193 94.8164 17.8193C93.4915 17.8193 92.4925 18.2669 91.8193 19.1621C91.1461 20.0501 90.8095 21.3714 90.8095 23.126ZM113.115 31L112.482 29.3672H112.396C111.844 30.0618 111.275 30.5452 110.688 30.8174C110.108 31.0824 109.349 31.2148 108.41 31.2148C107.257 31.2148 106.348 30.8854 105.682 30.2266C105.023 29.5677 104.694 28.6296 104.694 27.4121C104.694 26.1374 105.138 25.1992 106.026 24.5977C106.921 23.9889 108.267 23.6523 110.065 23.5879L112.149 23.5234V22.9971C112.149 21.7796 111.526 21.1709 110.28 21.1709C109.32 21.1709 108.192 21.4609 106.896 22.041L105.811 19.8281C107.193 19.1048 108.725 18.7432 110.408 18.7432C112.02 18.7432 113.255 19.0941 114.114 19.7959C114.974 20.4977 115.404 21.5648 115.404 22.9971V31H113.115ZM112.149 25.4355L110.881 25.4785C109.929 25.5072 109.22 25.679 108.754 25.9941C108.289 26.3092 108.056 26.7891 108.056 27.4336C108.056 28.3574 108.586 28.8193 109.646 28.8193C110.405 28.8193 111.01 28.6009 111.461 28.1641C111.92 27.7272 112.149 27.1471 112.149 26.4238V25.4355ZM122.155 24.4688L123.584 22.6426L126.946 18.9902H130.641L125.872 24.2002L130.931 31H127.15L123.691 26.1338L122.284 27.2617V31H119.007V14.2852H122.284V21.7402L122.112 24.4688H122.155Z" fill="#FAFAFA"/>
</svg>
