<svg width="512" height="512" viewBox="0 0 512 512" fill="none" xmlns="http://www.w3.org/2000/svg">
<path d="M353.645 291.158H158.353C110.439 291.158 71.5988 330 71.5988 377.912V416.892L14.2358 464.021L353.504 464.666C401.472 464.744 440.399 425.88 440.399 377.912C440.399 330 401.558 291.158 353.645 291.158Z" fill="#D7EBFF"/>
<path d="M353.651 478.901C353.65 478.901 353.648 478.901 353.647 478.901H353.48L14.209 478.256C8.20203 478.245 2.84903 474.464 0.830028 468.807C-1.18997 463.15 0.560028 456.835 5.19903 453.022L57.365 410.165V377.913C57.365 322.227 102.668 276.924 158.354 276.924H353.645C409.331 276.924 454.634 322.227 454.634 377.913C454.634 404.891 444.129 430.254 425.054 449.327C405.979 468.397 380.622 478.901 353.651 478.901ZM53.893 449.861L353.648 450.43C373.015 450.431 391.224 442.888 404.922 429.193C418.619 415.496 426.163 397.284 426.163 377.911C426.163 337.923 393.63 305.392 353.644 305.392H158.353C118.365 305.392 85.834 337.925 85.834 377.911V416.892C85.834 421.151 83.927 425.187 80.635 427.891L53.893 449.861Z" fill="#092279"/>
<path d="M345.307 392.147H318.058C310.197 392.147 303.823 385.773 303.823 377.912C303.823 370.051 310.197 363.677 318.058 363.677H345.307C353.168 363.677 359.542 370.051 359.542 377.912C359.542 385.773 353.167 392.147 345.307 392.147Z" fill="#092279"/>
<path d="M269.297 392.147H242.048C234.187 392.147 227.813 385.773 227.813 377.912C227.813 370.051 234.187 363.677 242.048 363.677H269.297C277.158 363.677 283.532 370.051 283.532 377.912C283.532 385.773 277.159 392.147 269.297 392.147Z" fill="#092279"/>
<path d="M193.29 392.147H166.041C158.18 392.147 151.806 385.773 151.806 377.912C151.806 370.051 158.18 363.677 166.041 363.677H193.29C201.151 363.677 207.525 370.051 207.525 377.912C207.525 385.773 201.15 392.147 193.29 392.147Z" fill="#092279"/>
<path d="M345.958 148.323H166.693C158.832 148.323 152.458 141.949 152.458 134.088C152.458 126.227 158.832 119.853 166.693 119.853H345.959C353.82 119.853 360.194 126.227 360.194 134.088C360.194 141.949 353.819 148.323 345.958 148.323Z" fill="#092279"/>
<path d="M158.354 235.077C131.407 235.077 106.075 224.597 87.0042 205.556C67.8912 186.474 57.3672 161.093 57.3672 134.088C57.3672 78.402 102.67 33.099 158.356 33.099H353.647C409.333 33.099 454.636 78.402 454.636 134.088V143.643C454.636 151.504 448.262 157.878 440.401 157.878C432.54 157.878 426.166 151.504 426.166 143.643V134.088C426.166 94.1 393.633 61.569 353.647 61.569H158.355C118.367 61.569 85.8362 94.102 85.8362 134.088C85.8362 153.48 93.3952 171.707 107.117 185.409C120.812 199.08 139.003 206.608 158.35 206.608C158.391 206.608 158.431 206.608 158.471 206.608L497.736 205.963C497.745 205.963 497.754 205.963 497.763 205.963C505.614 205.963 511.982 212.319 511.998 220.171C512.014 228.032 505.652 234.417 497.79 234.433L158.522 235.078C158.467 235.077 158.411 235.077 158.354 235.077Z" fill="#092279"/>
</svg>
