<svg width="512" height="512" viewBox="0 0 512 512" fill="none" xmlns="http://www.w3.org/2000/svg">
<path d="M80.5231 502.225C72.1321 502.225 65.3301 495.422 65.3301 487.032V231.032C65.3301 222.642 72.1321 215.839 80.5231 215.839C88.9141 215.839 95.7161 222.642 95.7161 231.032V487.032C95.7161 495.423 88.9141 502.225 80.5231 502.225Z" fill="#092279"/>
<path d="M80.5231 146.708C72.1321 146.708 65.3301 139.905 65.3301 131.515V90.3041C65.3301 81.9141 72.1321 75.1111 80.5231 75.1111C88.9141 75.1111 95.7161 81.9141 95.7161 90.3041V131.515C95.7161 139.904 88.9141 146.708 80.5231 146.708Z" fill="#9371FE"/>
<path d="M256 502.225C247.609 502.225 240.807 495.422 240.807 487.032V392.842C240.807 384.452 247.609 377.649 256 377.649C264.391 377.649 271.193 384.452 271.193 392.842V487.032C271.193 495.423 264.391 502.225 256 502.225Z" fill="#092279"/>
<path d="M256 204.443C247.609 204.443 240.807 197.64 240.807 189.25V24.968C240.807 16.578 247.609 9.77502 256 9.77502C264.391 9.77502 271.193 16.578 271.193 24.968V189.251C271.193 197.641 264.391 204.443 256 204.443Z" fill="#092279"/>
<path d="M431.477 502.225C423.086 502.225 416.284 495.422 416.284 487.032V273.566C416.284 265.176 423.086 258.373 431.477 258.373C439.868 258.373 446.67 265.176 446.67 273.566V487.033C446.67 495.423 439.868 502.225 431.477 502.225Z" fill="#092279"/>
<path d="M431.477 151.267C423.086 151.267 416.284 144.464 416.284 136.074V24.968C416.284 16.578 423.086 9.77502 431.477 9.77502C439.868 9.77502 446.67 16.578 446.67 24.968V136.076C446.67 144.465 439.868 151.267 431.477 151.267Z" fill="#092279"/>
<path d="M80.5229 155.637C116.604 155.637 145.853 126.388 145.853 90.3071C145.853 54.2263 116.604 24.9771 80.5229 24.9771C44.4421 24.9771 15.1929 54.2263 15.1929 90.3071C15.1929 126.388 44.4421 155.637 80.5229 155.637Z" fill="#D7EBFF"/>
<path d="M80.523 170.827C36.123 170.827 0 134.705 0 90.304C0 45.903 36.123 9.78101 80.523 9.78101C124.923 9.78101 161.046 45.902 161.046 90.304C161.046 134.706 124.923 170.827 80.523 170.827ZM80.523 40.167C52.878 40.167 30.386 62.659 30.386 90.304C30.386 117.949 52.878 140.441 80.523 140.441C108.168 140.441 130.66 117.949 130.66 90.304C130.66 62.659 108.168 40.167 80.523 40.167Z" fill="#092279"/>
<path d="M256 408.035C211.6 408.035 175.477 371.914 175.477 327.512C175.477 283.11 211.6 246.989 256 246.989C300.4 246.989 336.523 283.11 336.523 327.512C336.523 341.102 333.07 354.542 326.537 366.377C322.482 373.723 313.239 376.391 305.894 372.336C298.548 368.281 295.88 359.039 299.935 351.692C303.993 344.342 306.138 335.979 306.138 327.512C306.138 299.867 283.646 277.375 256.001 277.375C228.356 277.375 205.864 299.867 205.864 327.512C205.864 355.157 228.356 377.649 256.001 377.649C264.392 377.649 271.194 384.452 271.194 392.842C271.194 401.231 264.391 408.035 256 408.035Z" fill="#092279"/>
<path d="M431.48 201.398C467.561 201.398 496.81 172.149 496.81 136.068C496.81 99.9873 467.561 70.738 431.48 70.738C395.399 70.738 366.15 99.9873 366.15 136.068C366.15 172.149 395.399 201.398 431.48 201.398Z" fill="#D7EBFF"/>
<path d="M431.477 216.597C387.077 216.597 350.954 180.476 350.954 136.074C350.954 91.672 387.077 55.551 431.477 55.551C475.877 55.551 512 91.673 512 136.074C512 180.475 475.877 216.597 431.477 216.597ZM431.477 85.938C403.832 85.938 381.34 108.43 381.34 136.075C381.34 163.72 403.832 186.212 431.477 186.212C459.122 186.212 481.614 163.72 481.614 136.075C481.614 108.43 459.122 85.938 431.477 85.938Z" fill="#092279"/>
</svg>
