<svg width="512" height="512" viewBox="0 0 512 512" fill="none" xmlns="http://www.w3.org/2000/svg">
<path d="M102.374 479.485C45.926 479.485 0 433.56 0 377.11C0 320.662 45.926 274.736 102.374 274.736C138.499 274.736 172.332 294.098 190.667 325.268C194.742 332.197 192.429 341.117 185.502 345.191C178.573 349.268 169.654 346.953 165.579 340.026C152.45 317.708 128.231 303.844 102.373 303.844C61.973 303.844 29.106 336.711 29.106 377.111C29.106 417.511 61.973 450.379 102.373 450.379C127.777 450.379 151.007 437.506 164.515 415.948C168.784 409.135 177.765 407.075 184.574 411.34C191.385 415.609 193.447 424.59 189.18 431.399C170.318 461.509 137.866 479.485 102.374 479.485Z" fill="#092279"/>
<path d="M497.446 359.756H254.324C246.286 359.756 239.77 353.239 239.77 345.202C239.77 337.165 246.286 330.648 254.324 330.648H497.446C505.483 330.648 512 337.165 512 345.202C512 353.239 505.483 359.756 497.446 359.756Z" fill="#092279"/>
<path d="M406.276 423.573H254.324C246.286 423.573 239.77 417.056 239.77 409.019C239.77 400.982 246.286 394.465 254.324 394.465H406.275C414.312 394.465 420.829 400.982 420.829 409.019C420.829 417.056 414.314 423.573 406.276 423.573Z" fill="#092279"/>
<path d="M102.371 222.701C150.871 222.701 190.188 183.384 190.188 134.884C190.188 86.384 150.871 47.067 102.371 47.067C53.8712 47.067 14.5542 86.384 14.5542 134.884C14.5542 183.384 53.8712 222.701 102.371 222.701Z" fill="#D7EBFF"/>
<path d="M102.374 237.263C45.924 237.263 0 191.338 0 134.89C0 78.44 45.924 32.515 102.374 32.515C158.824 32.515 204.748 78.44 204.748 134.89C204.75 191.338 158.824 237.263 102.374 237.263ZM102.374 61.622C61.974 61.622 29.107 94.49 29.107 134.89C29.107 175.29 61.974 208.157 102.374 208.157C142.774 208.157 175.641 175.29 175.641 134.89C175.641 94.49 142.774 61.622 102.374 61.622Z" fill="#092279"/>
<path d="M497.446 117.535H254.324C246.286 117.535 239.77 111.018 239.77 102.981C239.77 94.944 246.286 88.427 254.324 88.427H497.446C505.483 88.427 512 94.944 512 102.981C512 111.018 505.483 117.535 497.446 117.535Z" fill="#092279"/>
<path d="M406.276 181.35H254.324C246.286 181.35 239.77 174.833 239.77 166.796C239.77 158.759 246.286 152.242 254.324 152.242H406.275C414.312 152.242 420.829 158.759 420.829 166.796C420.829 174.833 414.314 181.35 406.276 181.35Z" fill="#092279"/>
</svg>
