<svg width="176" height="58" viewBox="0 0 176 58" fill="none" xmlns="http://www.w3.org/2000/svg">
<path d="M16.6865 30.8209C16.6865 32.0162 16.3833 33.0797 15.7769 34.0113C15.1704 34.9342 14.2959 35.6549 13.1533 36.1734C12.0107 36.6832 10.6704 36.9381 9.13232 36.9381C7.84912 36.9381 6.77246 36.8502 5.90234 36.6744C5.03223 36.4898 4.12695 36.1734 3.18652 35.7252V31.0846C4.17969 31.5943 5.2124 31.9942 6.28467 32.2843C7.35693 32.5655 8.34131 32.7061 9.23779 32.7061C10.0112 32.7061 10.5781 32.5743 10.9385 32.3106C11.2988 32.0382 11.479 31.691 11.479 31.2691C11.479 31.0055 11.4043 30.7769 11.2549 30.5836C11.1143 30.3814 10.8813 30.1793 10.5562 29.9771C10.2397 29.775 9.38721 29.3619 7.99854 28.7379C6.7417 28.1666 5.79688 27.6129 5.16406 27.0768C4.54004 26.5406 4.07422 25.9254 3.7666 25.231C3.46777 24.5367 3.31836 23.7149 3.31836 22.7657C3.31836 20.9903 3.96436 19.606 5.25635 18.6129C6.54834 17.6197 8.32373 17.1231 10.5825 17.1231C12.5776 17.1231 14.6123 17.5846 16.6865 18.5074L15.0913 22.5284C13.2896 21.7022 11.7339 21.2892 10.4243 21.2892C9.74756 21.2892 9.25537 21.4078 8.94775 21.6451C8.64014 21.8824 8.48633 22.1768 8.48633 22.5284C8.48633 22.9063 8.67969 23.2447 9.06641 23.5435C9.46191 23.8424 10.5254 24.3873 12.2568 25.1783C13.918 25.9254 15.0693 26.7296 15.7109 27.5909C16.3613 28.4435 16.6865 29.5201 16.6865 30.8209ZM29.3755 36.6744L28.3867 34.6969H28.2812C27.5869 35.5582 26.8794 36.1471 26.1587 36.4635C25.438 36.7799 24.5063 36.9381 23.3638 36.9381C21.9575 36.9381 20.8501 36.5162 20.0415 35.6725C19.2329 34.8287 18.8286 33.6422 18.8286 32.1129C18.8286 30.5221 19.3823 29.3399 20.4897 28.5665C21.5971 27.7843 23.2012 27.3448 25.3017 27.2481L27.7934 27.169V26.9581C27.7934 25.7276 27.187 25.1124 25.9741 25.1124C24.8843 25.1124 23.5 25.4815 21.8213 26.2198L20.3315 22.8185C22.0718 21.922 24.269 21.4737 26.9233 21.4737C28.8393 21.4737 30.3203 21.9483 31.3662 22.8976C32.4209 23.8468 32.9482 25.1739 32.9482 26.879V36.6744H29.3755ZM25.5522 33.2994C26.1763 33.2994 26.708 33.1017 27.1474 32.7061C27.5957 32.3106 27.8198 31.7965 27.8198 31.1637V30.0035L26.6333 30.0562C24.937 30.1178 24.0888 30.7418 24.0888 31.9283C24.0888 32.8424 24.5766 33.2994 25.5522 33.2994ZM40.6406 36.6744L34.9453 21.7374H40.3242L42.8554 30.5704C42.8642 30.6143 42.8818 30.6891 42.9082 30.7945C42.9345 30.9 42.9609 31.0274 42.9873 31.1768C43.0136 31.3175 43.0356 31.4713 43.0532 31.6383C43.0796 31.7965 43.0927 31.9459 43.0927 32.0865H43.185C43.185 31.6295 43.2641 31.1329 43.4223 30.5968L46.0722 21.7374H51.438L45.7426 36.6744H40.6406ZM58.6821 36.6744H53.5273V21.7374H58.6821V36.6744ZM53.3955 18.0196C53.3955 17.2462 53.6108 16.6705 54.0414 16.2926C54.4721 15.9146 55.1664 15.7257 56.1245 15.7257C57.0825 15.7257 57.7812 15.919 58.2206 16.3058C58.6601 16.6925 58.8798 17.2638 58.8798 18.0196C58.8798 19.5313 57.9614 20.2872 56.1245 20.2872C54.3051 20.2872 53.3955 19.5313 53.3955 18.0196ZM71.9775 36.6744V28.5269C71.9775 27.5338 71.8324 26.7867 71.5424 26.2857C71.2612 25.776 70.8041 25.5211 70.1713 25.5211C69.3012 25.5211 68.6728 25.8683 68.2861 26.5626C67.8993 27.2569 67.706 28.4478 67.706 30.1353V36.6744H62.5512V21.7374H66.4404L67.0863 23.5831H67.3896C67.829 22.88 68.4355 22.3526 69.2089 22.0011C69.9911 21.6495 70.8876 21.4737 71.8984 21.4737C73.5507 21.4737 74.8339 21.9527 75.748 22.9107C76.6708 23.8687 77.1322 25.2179 77.1322 26.9581V36.6744H71.9775ZM95.0023 21.7374V24.2291L92.9589 24.9806C93.2401 25.4903 93.3808 26.0836 93.3808 26.7603C93.3808 28.3687 92.8139 29.6168 91.6801 30.5045C90.5551 31.3922 88.872 31.836 86.6308 31.836C86.077 31.836 85.6376 31.8009 85.3124 31.7306C85.1894 31.9591 85.1278 32.1744 85.1278 32.3766C85.1278 32.6314 85.3344 32.8292 85.7475 32.9698C86.1605 33.1017 86.7011 33.1676 87.369 33.1676H89.8476C93.1962 33.1676 94.8705 34.5782 94.8705 37.3995C94.8705 39.2188 94.0927 40.6339 92.537 41.6446C90.9901 42.6554 88.8148 43.1607 86.0111 43.1607C83.893 43.1607 82.2582 42.8048 81.1068 42.0929C79.9643 41.3897 79.393 40.3746 79.393 39.0475C79.393 37.2633 80.5004 36.1119 82.7152 35.5934C82.2582 35.4 81.8583 35.088 81.5155 34.6573C81.1815 34.2267 81.0145 33.8004 81.0145 33.3785C81.0145 32.9127 81.142 32.504 81.3969 32.1524C81.6518 31.7921 82.1835 31.3658 82.9921 30.8736C82.2187 30.5309 81.6078 29.9947 81.1596 29.2652C80.7201 28.5357 80.5004 27.648 80.5004 26.6021C80.5004 24.9762 81.0541 23.7149 82.1615 22.8185C83.2689 21.922 84.851 21.4737 86.9076 21.4737C87.1801 21.4737 87.6503 21.5045 88.3183 21.566C88.9862 21.6275 89.4784 21.6847 89.7948 21.7374H95.0023ZM83.7436 38.5333C83.7436 38.9552 83.9721 39.2935 84.4291 39.5484C84.8861 39.8121 85.497 39.9439 86.2616 39.9439C87.5097 39.9439 88.5072 39.7857 89.2543 39.4693C90.0102 39.1617 90.3881 38.7618 90.3881 38.2696C90.3881 37.8741 90.1596 37.5929 89.7025 37.4259C89.2455 37.2677 88.5907 37.1886 87.7382 37.1886H85.7211C85.1674 37.1886 84.6972 37.316 84.3104 37.5709C83.9325 37.8346 83.7436 38.1554 83.7436 38.5333ZM85.3651 26.6285C85.3651 28.1578 85.8969 28.9225 86.9604 28.9225C87.4525 28.9225 87.8305 28.7335 88.0941 28.3556C88.3666 27.9776 88.5028 27.4107 88.5028 26.6549C88.5028 25.108 87.9887 24.3346 86.9604 24.3346C85.8969 24.3346 85.3651 25.0992 85.3651 26.6285ZM109.089 32.0865C109.089 33.6861 108.544 34.8946 107.454 35.712C106.364 36.5294 104.8 36.9381 102.761 36.9381C101.653 36.9381 100.691 36.8766 99.8734 36.7535C99.056 36.6393 98.2211 36.4239 97.3685 36.1075V31.981C98.1683 32.3326 99.0429 32.6227 99.9921 32.8512C100.95 33.0797 101.803 33.1939 102.55 33.1939C103.666 33.1939 104.224 32.9391 104.224 32.4293C104.224 32.1656 104.066 31.9327 103.749 31.7306C103.442 31.5196 102.537 31.1153 101.034 30.5177C99.6625 29.9552 98.7045 29.318 98.1596 28.606C97.6146 27.8853 97.3422 26.9757 97.3422 25.877C97.3422 24.4884 97.8783 23.4073 98.9506 22.6339C100.023 21.8604 101.539 21.4737 103.499 21.4737C104.483 21.4737 105.406 21.5836 106.267 21.8033C107.138 22.0143 108.038 22.3263 108.97 22.7393L107.573 26.0616C106.887 25.754 106.162 25.4947 105.397 25.2838C104.633 25.0641 104.009 24.9542 103.525 24.9542C102.682 24.9542 102.26 25.1607 102.26 25.5738C102.26 25.8287 102.405 26.0484 102.695 26.233C102.994 26.4088 103.846 26.7735 105.252 27.3272C106.298 27.7579 107.076 28.1798 107.586 28.5929C108.104 29.006 108.482 29.4937 108.72 30.0562C108.966 30.61 109.089 31.2867 109.089 32.0865ZM130.558 27.0108C130.558 30.254 129.763 32.7193 128.172 34.4068C126.581 36.0943 124.252 36.9381 121.184 36.9381C118.161 36.9381 115.841 36.0899 114.223 34.3936C112.615 32.6974 111.811 30.2276 111.811 26.9845C111.811 23.7765 112.611 21.3287 114.21 19.6412C115.819 17.9449 118.152 17.0968 121.211 17.0968C124.278 17.0968 126.603 17.9361 128.185 19.6148C129.767 21.2935 130.558 23.7589 130.558 27.0108ZM117.295 27.0108C117.295 30.7374 118.592 32.6007 121.184 32.6007C122.503 32.6007 123.478 32.148 124.111 31.2428C124.753 30.3375 125.074 28.9268 125.074 27.0108C125.074 25.086 124.748 23.6666 124.098 22.7525C123.456 21.8297 122.494 21.3683 121.211 21.3683C118.6 21.3683 117.295 23.2491 117.295 27.0108ZM143.748 36.6744L142.759 34.6969H142.654C141.959 35.5582 141.252 36.1471 140.531 36.4635C139.81 36.7799 138.879 36.9381 137.736 36.9381C136.33 36.9381 135.223 36.5162 134.414 35.6725C133.605 34.8287 133.201 33.6422 133.201 32.1129C133.201 30.5221 133.755 29.3399 134.862 28.5665C135.97 27.7843 137.574 27.3448 139.674 27.2481L142.166 27.169V26.9581C142.166 25.7276 141.559 25.1124 140.347 25.1124C139.257 25.1124 137.872 25.4815 136.194 26.2198L134.704 22.8185C136.444 21.922 138.641 21.4737 141.296 21.4737C143.212 21.4737 144.693 21.9483 145.739 22.8976C146.793 23.8468 147.321 25.1739 147.321 26.879V36.6744H143.748ZM139.925 33.2994C140.549 33.2994 141.08 33.1017 141.52 32.7061C141.968 32.3106 142.192 31.7965 142.192 31.1637V30.0035L141.006 30.0562C139.309 30.1178 138.461 30.7418 138.461 31.9283C138.461 32.8424 138.949 33.2994 139.925 33.2994ZM156.094 28.2765C156.718 27.2833 157.25 26.5099 157.689 25.9561L161.038 21.7374H166.786L161.605 28.0919L167.116 36.6744H161.222L157.953 31.3219L156.279 32.6007V36.6744H151.097V16.1607H156.279V24.2291C156.279 25.609 156.182 26.9581 155.989 28.2765H156.094Z" fill="#092279"/>
</svg>
