<svg width="512" height="512" viewBox="0 0 512 512" fill="none" xmlns="http://www.w3.org/2000/svg">
<g clip-path="url(#clip0)">
<path d="M497.805 456.819H113.815C93.2241 456.819 76.4731 440.066 76.4731 419.476V167.498C76.4731 146.907 93.2241 130.156 113.815 130.156H474.657C495.248 130.156 512 146.907 512 167.498V348.409C512 356.249 505.644 362.604 497.805 362.604C489.967 362.604 483.61 356.249 483.61 348.409V167.498C483.61 162.561 479.594 158.545 474.656 158.545H113.816C108.879 158.545 104.863 162.562 104.863 167.498V419.477C104.863 424.414 108.879 428.431 113.816 428.431H497.807C505.645 428.431 512.002 434.786 512.002 442.626C512.002 450.466 505.645 456.819 497.805 456.819Z" fill="#092279"/>
<path d="M497.805 167.498C497.805 174.888 494.278 181.833 488.31 186.191L294.237 327.936L100.163 186.191C94.196 181.833 90.668 174.888 90.668 167.498C90.668 154.714 101.032 144.351 113.815 144.351H474.657C487.442 144.349 497.805 154.713 497.805 167.498Z" fill="#D7EBFF"/>
<path d="M294.237 342.13C291.299 342.13 288.358 341.219 285.865 339.399L91.7901 197.654C82.1991 190.646 76.4741 179.373 76.4741 167.497C76.4741 146.906 93.2251 130.155 113.816 130.155H474.658C495.249 130.155 512.001 146.906 512.001 167.497C512.001 179.374 506.275 190.647 496.684 197.654L302.61 339.399C300.116 341.219 297.175 342.13 294.237 342.13ZM113.816 158.544C108.879 158.544 104.863 162.56 104.863 167.497C104.863 170.344 106.237 173.049 108.537 174.729L294.237 310.358L479.937 174.728C482.237 173.049 483.611 170.346 483.611 167.497C483.611 162.56 479.595 158.544 474.657 158.544H113.816Z" fill="#092279"/>
<path d="M90.6678 167.498C90.6678 154.714 101.032 144.351 113.815 144.351H421.332V92.526C421.332 79.742 410.969 69.377 398.185 69.377H37.3428C24.5578 69.377 14.1938 79.741 14.1938 92.526V344.505C14.1938 357.289 24.5578 367.652 37.3408 367.652H90.6658V167.498H90.6678Z" fill="#D7EBFF"/>
<path d="M90.668 381.847H37.343C16.753 381.847 0 365.096 0 344.505V92.526C0 71.935 16.753 55.183 37.343 55.183H398.185C418.776 55.183 435.527 71.936 435.527 92.526V144.351C435.527 152.191 429.171 158.546 421.332 158.546H113.816C108.879 158.546 104.863 162.563 104.863 167.499V367.655C104.863 375.492 98.507 381.847 90.668 381.847ZM37.343 83.572C32.405 83.572 28.389 87.589 28.389 92.526V344.505C28.389 349.442 32.405 353.459 37.343 353.459H76.473V167.498C76.473 146.907 93.224 130.156 113.815 130.156H407.138V92.526C407.138 87.589 403.122 83.572 398.185 83.572H37.343Z" fill="#092279"/>
</g>
<defs>
<clipPath id="clip0">
<rect width="512" height="512" fill="white"/>
</clipPath>
</defs>
</svg>
