<?xml version="1.0" encoding="UTF-8"?>
<svg width="209px" height="50px" viewBox="0 0 209 50" version="1.1" xmlns="http://www.w3.org/2000/svg" xmlns:xlink="http://www.w3.org/1999/xlink">
    <!-- Generator: Sketch 57.1 (83088) - https://sketch.com -->
    <title>Artboard Copy 24</title>
    <desc>Created with Sketch.</desc>
    <g id="Artboard-Copy-24" stroke="none" stroke-width="1" fill="none" fill-rule="evenodd">
        <path d="M11.2,40.56 C9.6266588,40.56 7.940009,40.3466688 6.14,39.92 C4.339991,39.4933312 2.9333384,39.0266692 1.92,38.52 L2.52,33.08 C6.0400176,34.7866752 9.13332,35.64 11.8,35.64 C13.2133404,35.64 14.319996,35.3666694 15.12,34.82 C15.92,34.2733306 16.32,33.466672 16.32,32.4 C16.32,31.599996 16.1000022,30.94 15.66,30.42 C15.2199978,29.8999974 14.5866708,29.4600018 13.76,29.1 C12.9333292,28.7399982 11.6133424,28.2400032 9.8,27.6 C8.0933248,27.0133304 6.6800056,26.3933366 5.56,25.74 C4.4399944,25.0866634 3.5533366,24.2466718 2.9,23.22 C2.2466634,22.1933282 1.92,20.9333408 1.92,19.44 C1.92,17.039988 2.7999912,15.106674 4.56,13.64 C6.3200088,12.173326 8.8399836,11.44 12.12,11.44 C13.6666744,11.44 15.206659,11.6133316 16.74,11.96 C18.273341,12.3066684 19.6799936,12.7333308 20.96,13.24 L20.44,18.48 C18.7866584,17.7599964 17.2733402,17.2200018 15.9,16.86 C14.5266598,16.4999982 13.1600068,16.32 11.8,16.32 C10.2799924,16.32 9.120004,16.5733308 8.32,17.08 C7.519996,17.5866692 7.12,18.3199952 7.12,19.28 C7.12,20.0266704 7.3333312,20.6399976 7.76,21.12 C8.1866688,21.6000024 8.766663,21.9999984 9.5,22.32 C10.233337,22.6400016 11.3199928,23.0266644 12.76,23.48 C15.9866828,24.4933384 18.3399926,25.6599934 19.82,26.98 C21.3000074,28.3000066 22.04,30.1066552 22.04,32.4 C22.04,34.5866776 21.2800076,36.4933252 19.76,38.12 C18.2399924,39.7466748 15.3866876,40.56 11.2,40.56 Z M26.9466667,12 L37.1866667,12 C40.1733483,12 42.5266581,12.7133262 44.2466667,14.14 C45.9666753,15.5666738 46.8266667,17.679986 46.8266667,20.48 C46.8266667,22.4266764 46.4133375,24.0199938 45.5866667,25.26 C44.7599959,26.5 43.5866743,27.4933296 42.0666667,28.24 L48.3866667,40 L42.6666667,40 L37.2666667,29.6 L32.0666667,29.6 L32.0666667,40 L26.9466667,40 L26.9466667,12 Z M35.8266667,25.32 C39.5866855,25.32 41.4666667,23.8000152 41.4666667,20.76 C41.4666667,19.293326 41.0400043,18.1800038 40.1866667,17.42 C39.3333291,16.6599962 37.9466763,16.28 36.0266667,16.28 L32.0666667,16.28 L32.0666667,25.32 L35.8266667,25.32 Z M52.6533333,12 L57.7733333,12 L57.7733333,40 L52.6533333,40 L52.6533333,12 Z M64.6,12 L74.84,12 C77.8266816,12 80.1799914,12.7133262 81.9,14.14 C83.6200086,15.5666738 84.48,17.679986 84.48,20.48 C84.48,22.4266764 84.0666708,24.0199938 83.24,25.26 C82.4133292,26.5 81.2400076,27.4933296 79.72,28.24 L86.04,40 L80.32,40 L74.92,29.6 L69.72,29.6 L69.72,40 L64.6,40 L64.6,12 Z M73.48,25.32 C77.2400188,25.32 79.12,23.8000152 79.12,20.76 C79.12,19.293326 78.6933376,18.1800038 77.84,17.42 C76.9866624,16.6599962 75.6000096,16.28 73.68,16.28 L69.72,16.28 L69.72,25.32 L73.48,25.32 Z M104.826667,33.36 L94.6266667,33.36 L92.3066667,40 L87.3466667,40 L97.3066667,12 L102.146667,12 L112.106667,40 L107.146667,40 L104.826667,33.36 Z M103.226667,28.88 L99.7466667,18.88 L96.2266667,28.88 L103.226667,28.88 Z M139.133333,40 L136.733333,21.24 L129.573333,34.12 L122.373333,21.28 L119.973333,40 L114.653333,40 L118.533333,12 L122.733333,12 L129.573333,24.76 L136.373333,12 L140.573333,12 L144.453333,40 L139.133333,40 Z M159.626667,12 L169.586667,12 C176.2267,12 179.546667,15.0133032 179.546667,21.04 C179.546667,24.1600156 178.706675,26.4799924 177.026667,28 C175.346658,29.5200076 172.906683,30.28 169.706667,30.28 L164.746667,30.28 L164.746667,40 L159.626667,40 L159.626667,12 Z M169.106667,26 C170.866675,26 172.179996,25.600004 173.046667,24.8 C173.913338,23.999996 174.346667,22.7733416 174.346667,21.12 C174.346667,19.4666584 173.906671,18.2466706 173.026667,17.46 C172.146662,16.6733294 170.800009,16.28 168.986667,16.28 L164.746667,16.28 L164.746667,26 L169.106667,26 Z M184.133333,12 L189.253333,12 L189.253333,40 L184.133333,40 L184.133333,12 Z M189.653333,25.2 L200.013333,12 L206.013333,12 L195.573333,25.2 L206.013333,40 L200.013333,40 L189.653333,25.2 Z" id="SRIRAMPK" fill="#F87000" fill-rule="nonzero"></path>
    </g>
</svg>