<svg width="985" height="782" viewBox="0 0 985 782" fill="none" xmlns="http://www.w3.org/2000/svg">
<ellipse cx="488.5" cy="410.5" rx="281.5" ry="251.5" fill="#FBC402" fill-opacity="0.4"/>
<path d="M370.181 637.181H431.732C433.286 637.181 434.839 636.016 435.033 634.269L439.887 601.454C440.081 599.707 441.829 598.347 443.771 598.736C467.848 603.396 491.342 603.978 511.341 599.706C514.06 599.124 516.972 598.541 519.885 597.765C521.826 597.376 523.574 598.542 523.768 600.483L528.816 634.269C529.011 635.822 530.37 637.181 532.117 637.181H593.474C595.222 637.181 596.581 636.016 596.775 634.269L606.872 561.65C607.066 560.485 607.649 559.514 608.62 558.737C651.531 529.223 683.957 483.982 669.977 419.712C656.385 357.19 610.756 318.939 556.777 300.881C590.562 331.172 675.608 426.12 555.806 531.748C509.205 572.911 435.81 578.348 357.56 566.892L366.88 634.074C367.074 636.016 368.627 637.181 370.181 637.181Z" fill="#005942"/>
<path d="M401.442 351.559C401.442 351.559 418.723 352.53 431.344 338.162C431.344 338.162 425.131 261.659 368.434 263.601L401.442 351.559Z" fill="#005942"/>
<path d="M368.434 318.162V263.601C368.434 263.601 404.161 286.707 401.442 351.559L368.434 318.162Z" fill="#007B51"/>
<path d="M664.929 427.867C662.987 427.867 661.045 426.702 660.074 424.955C658.715 422.236 659.686 418.936 662.404 417.382C662.599 417.382 667.841 414.47 673.472 408.256C671.142 406.509 669.006 403.984 666.87 400.684C657.55 385.733 663.181 377.578 665.899 374.665C671.142 369.228 680.462 368.452 687.452 372.529C693.083 375.83 697.743 383.403 694.248 394.276C693.86 395.635 693.277 396.995 692.695 398.354C700.267 393.499 708.422 383.209 712.694 376.024C714.247 373.306 717.742 372.529 720.267 374.083C722.985 375.636 723.762 379.131 722.208 381.655C720.267 384.762 703.374 411.945 685.122 412.14C684.928 412.14 684.734 412.14 684.54 412.14C676.773 422.042 668.035 426.702 667.453 427.091C666.676 427.673 665.899 427.867 664.929 427.867ZM677.744 381.073C676.19 381.073 674.637 381.461 673.666 382.432C671.724 384.374 672.695 389.228 676.19 394.664C677.55 396.8 678.714 398.159 679.88 399.13C681.239 396.606 682.598 393.888 683.569 390.781C684.54 387.869 684.928 383.985 681.627 382.043C680.656 381.461 679.103 381.073 677.744 381.073Z" fill="#007B51"/>
<path d="M556.777 300.881C550.369 298.746 543.962 296.998 537.554 295.445L534.253 308.066C491.73 295.251 442.8 303.794 442.8 303.794L440.664 291.367C435.422 292.144 430.373 293.115 425.325 294.086C342.415 311.949 306.3 380.296 298.727 396.801C297.756 399.131 295.62 400.684 293.096 401.072L269.213 405.538C265.524 406.315 263 409.422 263 413.111V447.867V489.807C263 493.691 265.718 496.797 269.408 497.38L300.086 502.234C302.61 502.623 304.552 504.176 305.717 506.312C316.59 527.864 334.066 546.31 354.842 561.261C356.201 562.232 356.978 563.591 357.172 565.145L357.366 567.086C435.616 578.542 509.011 573.106 555.612 531.942C675.608 426.12 590.562 331.172 556.777 300.881Z" fill="#BCE3D9"/>
<path d="M534.059 308.066L537.36 295.445C505.516 287.872 471.731 286.707 440.47 291.367L442.606 303.794C442.8 303.794 491.536 295.251 534.059 308.066Z" fill="#5B3F34"/>
<path d="M348.628 410.392C353.99 410.392 358.337 402.916 358.337 393.694C358.337 384.472 353.99 376.996 348.628 376.996C343.267 376.996 338.92 384.472 338.92 393.694C338.92 402.916 343.267 410.392 348.628 410.392Z" fill="#5B3F34"/>
<path d="M489.012 287.095C509.494 287.095 526.098 270.491 526.098 250.009C526.098 229.527 509.494 212.923 489.012 212.923C468.53 212.923 451.926 229.527 451.926 250.009C451.926 270.491 468.53 287.095 489.012 287.095Z" fill="#F8DF59"/>
<path d="M489.012 294.279C464.547 294.279 444.742 274.474 444.742 250.009C444.742 225.543 464.547 205.738 489.012 205.738C513.478 205.738 533.283 225.543 533.283 250.009C533.283 274.474 513.478 294.279 489.012 294.279ZM489.012 220.107C472.508 220.107 459.305 233.504 459.305 249.815C459.305 266.319 472.702 279.522 489.012 279.522C505.322 279.522 518.72 266.125 518.72 249.815C518.72 233.504 505.517 220.107 489.012 220.107Z" fill="#F8DF59"/>
<path d="M451.926 252.533C450.567 252.533 449.402 251.368 449.402 250.009C449.402 228.068 467.265 210.398 489.012 210.398C490.371 210.398 491.536 211.564 491.536 212.923C491.536 214.282 490.371 215.447 489.012 215.447C469.984 215.447 454.644 230.98 454.644 249.815C454.644 251.368 453.479 252.533 451.926 252.533Z" fill="#F9F9F9"/>
<path d="M486.877 268.843C481.052 268.261 476.974 266.125 474.062 263.212L478.333 257.387C480.275 259.523 483.382 261.465 487.071 262.047V253.31C481.44 251.951 475.227 249.815 475.227 242.436C475.227 237 479.692 232.145 487.071 231.369V226.32H492.313V231.563C496.779 232.145 500.469 233.699 503.381 236.417L499.109 242.048C497.168 240.301 494.838 239.135 492.313 238.553V246.32C497.944 247.679 504.158 250.009 504.158 257.387C504.158 263.406 500.274 268.067 492.313 268.843V273.892H487.071V268.843H486.877ZM486.877 244.766V238.165C484.353 238.553 482.993 239.912 482.993 241.66C483.188 243.213 484.547 244.184 486.877 244.766ZM492.119 254.475V261.853C494.838 261.271 496.197 259.717 496.197 257.97C496.197 256.222 494.449 255.251 492.119 254.475Z" fill="#FFF2BD"/>
<path d="M453.091 262.436C454.807 262.436 456.198 261.045 456.198 259.329C456.198 257.613 454.807 256.222 453.091 256.222C451.375 256.222 449.984 257.613 449.984 259.329C449.984 261.045 451.375 262.436 453.091 262.436Z" fill="#F9F9F9"/>
<path d="M540.467 193.506C560.949 193.506 577.553 176.902 577.553 156.42C577.553 135.937 560.949 119.333 540.467 119.333C519.985 119.333 503.381 135.937 503.381 156.42C503.381 176.902 519.985 193.506 540.467 193.506Z" fill="#F8DF59"/>
<path d="M523.768 197.389C501.245 188.069 490.371 162.245 499.497 139.527C508.623 116.809 534.642 106.13 557.359 115.256C580.077 124.382 590.756 150.4 581.631 173.118C572.505 195.836 546.292 206.709 523.768 197.389ZM551.729 128.848C536.583 122.634 519.108 130.013 512.895 145.158C506.681 160.303 514.06 177.778 529.205 183.992C544.35 190.205 561.825 182.826 568.039 167.681C574.252 152.536 566.874 135.061 551.729 128.848Z" fill="#F8DF59"/>
<path d="M505.128 144.77C503.769 144.187 503.187 142.634 503.769 141.275C512.118 121.081 535.224 111.373 555.418 119.528C556.777 120.11 557.36 121.664 556.777 123.023C556.195 124.382 554.641 124.965 553.282 124.382C535.613 117.198 515.613 125.741 508.429 143.217C508.041 144.77 506.487 145.352 505.128 144.77Z" fill="#F9F9F9"/>
<path d="M531.341 172.924C526.292 170.205 523.186 166.71 521.632 162.827L527.846 158.944C528.817 161.662 530.952 164.574 534.059 166.516L537.36 158.555C532.7 155.06 527.846 150.789 530.564 143.993C532.7 138.944 538.525 136.226 545.709 138.362L547.651 133.702L552.505 135.643L550.563 140.498C554.447 142.633 557.359 145.546 558.913 149.235L552.699 152.924C551.534 150.594 549.787 148.459 547.845 147.099L544.933 154.284C549.593 157.779 554.641 162.05 551.728 169.04C549.398 174.671 543.962 177.39 536.389 175.254L534.448 179.914L529.593 177.972L531.341 172.924ZM540.467 150.789L542.991 144.575C540.661 143.993 538.719 144.769 538.137 146.323C537.554 147.876 538.525 149.235 540.467 150.789ZM541.632 161.856L538.913 168.652C541.632 169.234 543.379 168.264 544.156 166.71C544.738 164.963 543.573 163.409 541.632 161.856Z" fill="#FFF2BD"/>
<path d="M503.769 154.672C505.484 154.672 506.875 153.281 506.875 151.565C506.875 149.849 505.484 148.458 503.769 148.458C502.053 148.458 500.662 149.849 500.662 151.565C500.662 153.281 502.053 154.672 503.769 154.672Z" fill="#F9F9F9"/>
<path d="M435.033 202.437C455.515 202.437 472.119 185.833 472.119 165.351C472.119 144.869 455.515 128.265 435.033 128.265C414.551 128.265 397.947 144.869 397.947 165.351C397.947 185.833 414.551 202.437 435.033 202.437Z" fill="#F8DF59"/>
<path d="M448.625 207.485C425.325 214.864 400.277 202.049 392.899 178.748C385.52 155.448 398.335 130.4 421.636 123.022C444.936 115.644 469.984 128.459 477.362 151.759C484.74 175.059 471.925 200.107 448.625 207.485ZM425.907 137.002C410.18 142.05 401.636 158.749 406.685 174.477C411.733 190.204 428.432 198.748 444.159 193.699C459.887 188.651 468.43 171.952 463.382 156.225C458.333 140.497 441.635 131.954 425.907 137.002Z" fill="#F8DF59"/>
<path d="M400.666 179.137C399.306 179.525 397.753 178.749 397.365 177.389C390.763 156.613 402.219 134.284 422.995 127.488C424.354 127.1 425.908 127.876 426.296 129.236C426.684 130.595 425.907 132.148 424.548 132.536C406.491 138.362 396.394 157.778 402.219 175.836C402.801 177.195 402.025 178.554 400.666 179.137Z" fill="#F9F9F9"/>
<path d="M438.722 183.797C433.092 185.156 428.432 184.185 424.742 182.243L426.878 175.253C429.402 176.612 432.897 177.583 436.587 177.001L433.868 168.846C428.043 169.234 421.636 169.04 419.306 162.05C417.558 156.807 420.276 150.982 427.072 148.07L425.519 143.215L430.373 141.662L431.927 146.516C436.392 145.545 440.276 146.128 443.965 147.681L441.635 154.477C439.305 153.312 436.587 152.924 434.062 153.118L436.393 160.496C442.218 160.108 448.819 160.302 451.149 167.292C453.091 173.117 450.761 178.748 443.383 181.855L444.936 186.515L440.082 188.068L438.722 183.797ZM431.538 160.885L429.597 154.477C427.267 155.448 426.49 157.196 427.072 158.943C427.461 160.691 429.014 161.079 431.538 160.885ZM439.499 168.651L441.829 175.642C444.159 174.282 445.13 172.341 444.547 170.787C443.771 169.04 441.829 168.651 439.499 168.651Z" fill="#FFF2BD"/>
<path d="M403.772 188.263C405.488 188.263 406.879 186.872 406.879 185.156C406.879 183.44 405.488 182.049 403.772 182.049C402.056 182.049 400.665 183.44 400.665 185.156C400.665 186.872 402.056 188.263 403.772 188.263Z" fill="#F9F9F9"/>
</svg>
