<svg width="512" height="512" viewBox="0 0 512 512" fill="none" xmlns="http://www.w3.org/2000/svg">
<g clip-path="url(#clip0)">
<path d="M210.316 441.388C191.861 441.388 174.509 434.201 161.459 421.152C156.198 415.891 156.198 407.361 161.459 402.099C166.72 396.84 175.25 396.84 180.512 402.099C188.473 410.061 199.059 414.445 210.317 414.445C221.575 414.445 232.16 410.061 240.122 402.099L472.742 169.48C480.704 161.519 485.088 150.933 485.088 139.675C485.088 128.417 480.704 117.832 472.742 109.871C456.306 93.434 429.566 93.435 413.133 109.87L283.532 239.471C278.27 244.73 269.742 244.73 264.479 239.471C259.218 234.21 259.218 225.68 264.479 220.418L394.08 90.815C421.02 63.878 464.852 63.875 491.795 90.815C518.735 117.756 518.735 161.591 491.795 188.531L259.175 421.152C246.125 434.202 228.773 441.388 210.316 441.388Z" fill="#092279"/>
<path d="M287.978 371.291L248.647 410.622C226.925 432.344 191.707 432.344 169.985 410.622L29.731 270.37C8.00895 248.648 8.00895 213.43 29.731 191.708C51.453 169.986 86.671 169.986 108.393 191.708L287.978 371.291Z" fill="#D7EBFF"/>
<path d="M209.315 440.386C190.858 440.386 173.508 433.199 160.458 420.15L20.205 279.896C-6.735 252.955 -6.735 209.121 20.205 182.18C33.257 169.13 50.607 161.944 69.062 161.944C87.519 161.944 104.869 169.131 117.919 182.18L297.504 361.765C302.765 367.026 302.765 375.556 297.504 380.818L258.173 420.149C245.121 433.198 227.771 440.386 209.315 440.386ZM69.062 188.888C57.804 188.888 47.219 193.272 39.257 201.234C22.823 217.668 22.823 244.41 39.257 260.845L179.51 401.096C187.471 409.058 198.055 413.442 209.315 413.442C220.573 413.442 231.158 409.058 239.12 401.096L268.925 371.291L98.866 201.234C90.905 193.272 80.321 188.888 69.062 188.888Z" fill="#092279"/>
</g>
<defs>
<clipPath id="clip0">
<rect width="512" height="512" fill="white"/>
</clipPath>
</defs>
</svg>
